<?xml version="1.0" standalone="no"?><!DOCTYPE svg PUBLIC "-//W3C//DTD SVG 1.1//EN" "http://www.w3.org/Graphics/SVG/1.1/DTD/svg11.dtd"><svg t="1710075303250" class="icon" viewBox="0 0 1024 1024" version="1.1" xmlns="http://www.w3.org/2000/svg" p-id="88200" xmlns:xlink="http://www.w3.org/1999/xlink" width="200" height="200"><path d="M512 38.074c-228.073 0-414.72 186.647-414.72 414.72a410.205 410.205 0 0 0 183.668 343.552v115.526c0 41.425 32.582 74.007 74.054 74.007h313.996c41.425 0 74.007-32.582 74.007-74.007V796.346a414.115 414.115 0 0 0 183.668-343.598C926.72 224.675 740.073 38.074 512 38.074z m-38.493 231.052c0-20.76 17.78-41.472 38.493-41.472h2.979c11.822 0 20.713 2.979 26.624 11.822 8.89 8.89 11.869 17.78 11.869 29.65v29.603c0 20.759-17.78 41.472-38.493 41.472H512c-20.713 0-38.493-17.78-38.493-41.426v-29.65zM304.64 346.112c-5.911-8.844-5.911-20.713-2.932-29.603 2.932-11.869 8.843-17.78 17.78-23.738l2.932-2.932c5.958-2.933 11.87-5.912 20.76-5.912 14.801 0 26.624 8.844 35.514 20.713l14.848 26.67c5.911 8.89 5.911 20.76 2.932 29.65-2.932 11.823-8.843 17.734-17.78 23.692l-2.933 2.932c-5.957 2.979-11.869 5.958-20.759 5.958-14.801 0-26.624-8.89-35.514-20.76l-14.848-26.67z m367.29 201.449l-109.568 62.184v145.13c0 26.67-23.738 50.361-50.362 50.361-26.67 0-50.362-23.738-50.362-50.362V609.745L352.07 547.561c-23.738-14.848-32.582-44.451-17.78-68.143 14.8-23.738 44.404-32.582 68.095-17.78L512 523.869l109.615-62.231c23.691-14.802 56.273-5.911 68.096 17.78 11.869 23.738 5.91 56.32-17.78 68.143z m62.231-201.449l-14.801 26.67c-5.958 11.87-20.76 20.76-35.56 20.76a54.924 54.924 0 0 1-20.76-5.958l-2.932-2.932a46.08 46.08 0 0 1-17.78-23.739c-2.98-11.822 0-20.712 2.978-29.602l14.802-26.671c5.91-11.823 20.712-20.713 35.514-20.713 5.958 0 14.848 2.98 20.76 5.912l2.978 2.978a46.08 46.08 0 0 1 17.734 23.692c5.958 8.844 2.979 17.78-2.933 29.603z" p-id="88201" fill="#ee7ba3"></path></svg>