<?xml version="1.0" standalone="no"?><!DOCTYPE svg PUBLIC "-//W3C//DTD SVG 1.1//EN" "http://www.w3.org/Graphics/SVG/1.1/DTD/svg11.dtd"><svg t="1710075574338" class="icon" viewBox="0 0 1024 1024" version="1.1" xmlns="http://www.w3.org/2000/svg" p-id="109783" xmlns:xlink="http://www.w3.org/1999/xlink" width="200" height="200"><path d="M46.545455 512c0 257.070545 208.384 465.454545 465.454545 465.454545s465.454545-208.384 465.454545-465.454545S769.070545 46.545455 512 46.545455 46.545455 254.929455 46.545455 512z" fill="#FB7299" p-id="109784"></path><path d="M417.093818 251.112727c1.861818-10.286545 9.169455-16.058182 21.922909-17.221818 19.223273-1.768727 42.216727-3.816727 64.884364 12.986182 22.667636 16.756364 57.530182 54.225455 56.180364 73.634909-0.884364 12.939636-4.933818 34.909091-12.19491 65.954909 70.423273-33.512727 106.589091-51.293091 108.45091-53.201454 2.746182-2.839273 29.882182 3.490909 40.02909 6.656 10.053818 3.165091 30.347636-5.585455 36.957091-4.794182 6.656 0.791273 21.224727 25.506909 20.712728 33.745454-0.558545 8.238545 0 22.667636-2.094546 31.278546-2.094545 8.610909 0.930909 27.973818 0 39.377454s-8.052364 14.894545-11.962182 12.893091c-3.909818-2.094545-9.076364 5.399273-12.055272 10.24-2.932364 4.840727-28.625455-6.516364-37.096728-7.307636-8.517818-0.791273-39.330909-3.025455-61.44 0-14.708364 2.001455-42.170182 8.238545-82.385454 18.757818-18.711273 7.540364-29.696 12.939636-32.954182 16.151273-4.887273 4.794182-60.555636 148.014545-65.722182 160.116363-5.166545 11.962182-45.474909 91.415273-52.224 95.650909-6.702545 4.282182-46.871273 24.436364-76.520727 26.065455-29.602909 1.536-47.941818 0.977455-68.887273-14.754909-20.945455-15.732364-28.718545-27.461818 5.445818-41.611636 34.117818-14.196364 74.24-66.606545 93.509819-95.13891 19.269818-28.485818 70.144-104.215273 70.144-109.521454 0-5.306182 2.327273-5.306182-16.197819-2.653091-18.478545 2.699636-48.500364 7.168-69.213091 10.938182-20.712727 3.770182-47.941818 12.334545-57.390545 7.028363-9.402182-5.259636-32.349091-51.851636-29.928727-69.352727 2.420364-17.501091-8.517818-38.912 2.420363-37.143273 10.938182 1.768727 22.993455 9.634909 51.479273 12.8 28.485818 3.165091 133.678545-21.364364 138.053818-22.062545 4.421818-0.698182 3.351273-16.756364 3.351273-26.065455 0-9.216-1.489455-84.712727-12.008727-100.026181a78.754909 78.754909 0 0 1-13.265455-33.419637zM512 567.109818l9.448727-1.349818-6.888727-16.523636 52.130909 22.993454v-12.194909c34.071273 5.399273 55.994182 10.24 65.675636 14.568727 14.568727 6.469818 139.682909 98.490182 153.367273 116.037819 13.684364 17.547636 0 62.370909-19.176727 88.15709-19.176727 25.832727-34.909091 6.981818-49.384727-15.266909-9.634909-14.801455-78.056727-80.290909-205.172364-196.421818z" fill="#FFFFFF" p-id="109785"></path></svg>