<?xml version="1.0" standalone="no"?><!DOCTYPE svg PUBLIC "-//W3C//DTD SVG 1.1//EN" "http://www.w3.org/Graphics/SVG/1.1/DTD/svg11.dtd"><svg t="1710075238730" class="icon" viewBox="0 0 1024 1024" version="1.1" xmlns="http://www.w3.org/2000/svg" p-id="82943" xmlns:xlink="http://www.w3.org/1999/xlink" width="200" height="200"><path d="M894.71375 814.60864583a21.2925 21.2925 0 0 0-21.3215625 21.316875v58.876875H210.7371875c-32.3615625 0-58.76625-25.64625-60.0665625-57.6815625 0-0.5428125 0.110625-1.0846875 0.110625-1.72875 0-0.97875 0-2.3803125-0.110625-4.3340625 1.843125-31.4925 28.03125-56.596875 60.0665625-56.596875h678.898125c1.7325 0 3.350625-0.215625 4.8675-0.6478125h0.32625a21.2925 21.2925 0 0 0 21.316875-21.316875V150.54270833a21.2925 21.2925 0 0 0-21.316875-21.3215625H210.843125c-56.7121875 0-102.815625 46.0996875-102.815625 102.8109375 0 0.759375 0.1096875 1.5121875 0.215625 2.2753125-0.1059375 52.3828125-0.7584375 533.4384375-0.1059375 596.6353125 0 1.2-0.215625 2.4965625-0.215625 3.68625 0 54.5475 42.6384375 99.1303125 96.316875 102.4903125a16.6125 16.6125 0 0 0 3.249375 0.3215625h687.34125a21.2878125 21.2878125 0 0 0 21.316875-21.316875v-80.1984375a21.455625 21.455625 0 0 0-21.4321875-21.316875z m-381.178125-170.7365625c-173.745 0-221.4375-49.40625-221.4375-153.3065625 0-28.959375 8.514375-56.2125 23.84625-78.35625l10.21875-13.6265625v-119.240625l83.4675 54.5034375 17.030625 11.923125 18.73875-3.4078125c20.4525-3.3984375 44.289375-5.1075 68.135625-5.1075 23.8659375 0 47.7028125 1.704375 68.14125 5.1075l20.443125 3.4078125 17.034375-11.923125 81.7640625-54.504375v119.24625l10.224375 13.6275c17.034375 23.84625 23.855625 51.095625 23.855625 78.3553125 0 103.895625-47.7028125 153.301875-221.4628125 153.301875z" fill="#ee7ba3" p-id="82944"></path></svg>