<?xml version="1.0" standalone="no"?><!DOCTYPE svg PUBLIC "-//W3C//DTD SVG 1.1//EN" "http://www.w3.org/Graphics/SVG/1.1/DTD/svg11.dtd"><svg t="1710227217780" class="icon" viewBox="0 0 1024 1024" version="1.1" xmlns="http://www.w3.org/2000/svg" p-id="3746" xmlns:xlink="http://www.w3.org/1999/xlink" width="200" height="200"><path d="M771.313 411.136c2.56 0.422 22.528-4.036 23.371-2.53 1.265 1.898 10.18 66.018 7.83 66.44-2.318 0.421-18.883 4.246-18.883 4.246-1.265-8.704-12.107-62.644-12.318-68.156m31.864-6.144l8.735 69c4.427-0.211 22.467-1.506 24.184-1.687-2.56-26.142-7.017-67.313-7.017-67.313a66.47 66.47 0 0 0-25.902 0m-17.197 95.774s39.274-9.999 53.52-5.12c7.228 26.112 20.359 172.634 21.654 178.598-8.915 1.054-38.25 3.614-40.569 4.216-1.897-11.023-34.635-170.707-34.635-177.694m145.468-87.943c2.35 0.662 23.16-2.109 23.372-0.603 0.421 5.09 2.56 66.65 0.21 66.861l-18.883 1.717c-0.422-8.493-5.12-62.223-4.699-67.945m32.076-1.717l1.716 68.156c4.458 0 22.287 1.084 24.185 0.874-0.422-26.142 0-67.313 0-67.313a117.308 117.308 0 0 0-25.901-1.717m-27.407 91.528s40.146-5.301 53.73 1.054c3.011 30.57 2.56 173.056 3.011 179.019-9.156 0-38.25 0.422-40.598 0.843-0.422-11.053-16.776-173.9-16.113-180.916m-93.245-175.195c23.16 118.061 40.78 319.79 41.412 332.74 0 0 18.282 0.422 38.852 1.717-12.077-127.187-26.955-330.39-26.744-337.017-5.09-5.722-53.52 2.56-53.52 2.56M791.913 606.72c-4.457-33.13-122.94-70.716-189.62-58.609 0 0-8.283-73.065-11.445-143.751a1467.512 1467.512 0 0 1 0.21-129.536c-4.457-3.193-52.464 19.727-78.365 29.304 0 0 31.02 131.223 53.519 403.456 0 0 35.87 3.825 97.46-8.072 61.56-11.896 134.416-49.061 128.241-92.792m-144.805 59.633l-10.42-74.933c2.56-1.265 66.469 22.498 73.275 26.745-1.054 4.668-62.855 48.188-62.855 48.188M277.865 411.136c2.53 0.422 22.498-4.036 23.342-2.53 1.265 1.898 10.18 66.018 7.83 66.44-2.319 0.421-18.884 4.246-18.884 4.246-1.265-8.704-12.107-62.644-12.318-68.156m31.865-6.144l8.704 69c4.457-0.211 22.498-1.506 24.214-1.687-2.77-26.142-7.017-67.313-7.017-67.313a66.47 66.47 0 0 0-25.901 0m-17.197 95.774s39.273-9.999 53.489-5.12c7.228 26.112 20.39 172.634 21.684 178.598-8.945 1.054-38.25 3.614-40.568 4.216-1.928-11.023-34.636-170.707-34.636-177.694m145.469-87.943c2.349 0.662 23.16-2.109 23.371-0.603 0.422 5.09 2.53 66.65 0.21 66.861l-18.913 1.717c-0.422-8.493-4.88-62.223-4.668-67.945m32.075-1.717l1.687 68.156c4.457 0 22.287 1.084 24.214 0.874-0.421-26.142 0-67.313 0-67.313a131.795 131.795 0 0 0-25.901-1.717m-27.407 91.528s40.147-5.301 53.73 1.054c2.981 30.57 2.56 173.056 2.981 179.019-9.125 0-38.249 0.422-40.568 0.843-0.21-11.053-16.776-173.9-16.143-180.916m-93.214-175.195c23.16 118.061 40.78 319.79 41.412 332.74 0 0 18.25 0.422 38.851 1.717-12.107-127.187-26.955-330.39-26.744-337.198-5.12-5.541-53.52 2.741-53.52 2.741M298.467 606.72c-4.458-33.13-122.94-70.716-189.62-58.609 0 0-8.283-73.065-11.446-143.751a1467.512 1467.512 0 0 1 0.181-129.536c-4.457-2.982-52.435 19.727-78.336 29.304 0 0 30.991 131.223 53.49 403.456 0 0 35.9 3.825 97.49-8.072 61.56-11.896 134.415-49.061 128.24-92.792M153.66 666.353l-10.42-74.933c2.56-1.265 66.47 22.498 73.276 26.745-1.084 4.668-62.856 48.188-62.856 48.188" fill="#FA7199" p-id="3747"></path></svg>