<?xml version="1.0" standalone="no"?><!DOCTYPE svg PUBLIC "-//W3C//DTD SVG 1.1//EN" "http://www.w3.org/Graphics/SVG/1.1/DTD/svg11.dtd"><svg t="1710145963901" class="icon" viewBox="0 0 1024 1024" version="1.1" xmlns="http://www.w3.org/2000/svg" p-id="8251" xmlns:xlink="http://www.w3.org/1999/xlink" width="200" height="200"><path d="M512 36.571429c262.582857 0 475.428571 212.845714 475.428571 475.428571S774.582857 987.428571 512 987.428571 36.571429 774.582857 36.571429 512 249.417143 36.571429 512 36.571429z m86.784 234.258285l-273.865143 248.137143a7.314286 7.314286 0 0 0 4.900572 12.726857h112.877714c4.041143 0 7.314286 3.273143 7.314286 7.314286l-0.036572 0.731429-41.892571 205.403428a7.314286 7.314286 0 0 0 12.214857 6.765714l279.625143-266.678857a7.314286 7.314286 0 0 0-5.046857-12.617143h-113.627429a7.314286 7.314286 0 0 1-7.186286-8.722285l36.809143-186.221715a7.314286 7.314286 0 0 0-12.086857-6.838857z" fill="#4AC7FF" p-id="8252"></path></svg>