<?xml version="1.0" standalone="no"?><!DOCTYPE svg PUBLIC "-//W3C//DTD SVG 1.1//EN" "http://www.w3.org/Graphics/SVG/1.1/DTD/svg11.dtd"><svg t="1710225317460" class="icon" viewBox="0 0 1024 1024" version="1.1" xmlns="http://www.w3.org/2000/svg" p-id="2512" xmlns:xlink="http://www.w3.org/1999/xlink" width="200" height="200"><path d="M922.026667 439.04l-267.221334-282.368v185.258667h-85.333333c-250.325333 0-455.253333 181.504-481.322667 413.44 115.157333-133.674667 291.925333-218.922667 480.682667-218.922667h85.077333l0.554667 185.173333 267.52-282.581333z m-438.528 189.44C268.8 662.570667 87.04 821.76 47.232 1024A529.664 529.664 0 0 1 0 805.461333C0 502.272 254.976 256.597333 569.472 256.597333V40.96a35.242667 35.242667 0 0 1 10.368-30.208 39.68 39.68 0 0 1 54.4 0l378.794667 400.298667a35.413333 35.413333 0 0 1 10.88 27.861333 35.498667 35.498667 0 0 1-10.88 27.904l-376.704 398.08a37.973333 37.973333 0 0 1-56.448 2.133333 35.114667 35.114667 0 0 1-10.410667-30.208l-0.64-215.082666c-26.88 0-53.546667 2.005333-79.701333 5.845333l-5.632 0.853333z" fill="#757575" p-id="2513"></path></svg>