<?xml version="1.0" standalone="no"?><!DOCTYPE svg PUBLIC "-//W3C//DTD SVG 1.1//EN" "http://www.w3.org/Graphics/SVG/1.1/DTD/svg11.dtd"><svg t="1710067216673" class="icon" viewBox="0 0 1024 1024" version="1.1" xmlns="http://www.w3.org/2000/svg" p-id="21635" data-spm-anchor-id="a313x.search_index.0.i11.34a13a81MmuoKm" xmlns:xlink="http://www.w3.org/1999/xlink" width="200" height="200"><path d="M981.420229 341.145727c-26.059516-49.288566-63.235207-93.449345-110.49558-131.256416C774.894526 133.068691 647.552256 90.762143 512.354064 90.762143c-135.252427 0-262.630513 42.306548-358.666776 119.128191-47.263443 37.805024-84.439134 81.96785-110.496603 131.258463-27.241434 51.528584-41.051975 106.340957-41.051975 162.910347 0 50.170656 10.92891 99.191116 32.481785 145.69936 18.652825 40.251749 44.779879 77.625962 77.778434 111.290689-7.153934 24.348548-24.736381 79.673597-41.144072 130.023332l-12.973476 39.813774 41.424458-6.110161c0.563842-0.084934 57.077973-8.426927 113.52252-17.134239 68.019163-10.488889 98.096179-15.449877 112.591311-18.631336 59.387575 18.87386 122.098849 28.436656 186.537464 28.436656 135.191028 0 262.535345-42.323944 358.571608-119.17731 47.25935-37.817304 84.437088-81.989339 110.49558-131.286092 27.242458-51.53984 41.059138-106.355283 41.059138-162.924673C1022.481414 447.488731 1008.66678 392.678404 981.420229 341.145727L981.420229 341.145727zM512.356111 865.566618c-61.522192 0-121.243365-9.477862-177.503716-28.17162l-12.516058-4.161786-7.054673 5.036713c-18.59245 4.000104-99.378381 16.675798-181.812859 29.030174 3.098571-9.637498 6.494924-20.243043 9.874905-30.878265 23.990391-75.474972 23.926946-78.476329 23.813359-83.922365l-0.227174-10.790764-7.812943-7.445576c-33.458019-31.889291-59.508325-67.661006-77.42437-106.319467-18.362206-39.622416-27.67327-81.303724-27.67327-123.884518 0-199.285812 205.607798-361.414353 458.33373-361.414353 252.676813 0 458.243679 162.128541 458.243679 361.414353C970.599789 703.395098 765.0319 865.566618 512.356111 865.566618L512.356111 865.566618z" fill="#60666C" p-id="21636"></path></svg>