<?xml version="1.0" standalone="no"?><!DOCTYPE svg PUBLIC "-//W3C//DTD SVG 1.1//EN" "http://www.w3.org/Graphics/SVG/1.1/DTD/svg11.dtd"><svg t="1710060333479" class="icon" viewBox="0 0 1024 1024" version="1.1" xmlns="http://www.w3.org/2000/svg" p-id="14258" xmlns:xlink="http://www.w3.org/1999/xlink" width="200" height="200"><path d="M644.87866595 886.42622805c0-71.30375737-56.36701639-129.10635008-125.88707384-129.10635008-69.51074361 0-125.89755278 57.80259271-125.89755279 129.10635008 0 71.32238621 56.38797312 129.12381383 125.89755279 129.12381384C588.51281351 1015.55004189 644.87866595 957.74745031 644.87866595 886.42622805zM644.87866595 499.08971405c0-71.30259342-56.36701639-129.12381383-125.88707384-129.12381382-69.51074361 0-125.89755278 57.82238549-125.89755278 129.12381383 0 71.30375737 56.38797312 129.10635008 125.89755278 129.10635008C588.51281351 628.19606414 644.87866595 570.39347142 644.87866595 499.08971405zM644.87866595 137.57493589c0-71.32355015-56.36701639-129.12497891-125.88707384-129.12497891-69.51074361 0-125.89755278 57.80142762-125.89755279 129.12497891 0 71.30375737 56.38797312 129.10518499 125.89755279 129.105185C588.51281351 266.67895694 644.87866595 208.87752931 644.87866595 137.57493589z" p-id="14259" fill="#707070"></path></svg>