<?xml version="1.0" standalone="no"?><!DOCTYPE svg PUBLIC "-//W3C//DTD SVG 1.1//EN" "http://www.w3.org/Graphics/SVG/1.1/DTD/svg11.dtd"><svg t="1710058107346" class="icon" viewBox="0 0 1024 1024" version="1.1" xmlns="http://www.w3.org/2000/svg" p-id="4450" xmlns:xlink="http://www.w3.org/1999/xlink" width="200" height="200"><path d="M357.1 520.1l-47.7 143.1a40.91 40.91 0 0 0 9.9 41.9c7.8 7.8 18.3 12 29 12 4.3 0 8.7-0.7 12.9-2.1l143.1-47.7c21.4-7.1 41-19.3 56.9-35.2l389.6-389.6c37.6-37.6 44-88 14.8-117.2L899 58.8c-16.2-16.2-40.1-21.9-65.5-15.6-18.3 4.6-36.7 15.4-51.7 30.4L392.3 463.2c-15.9 15.9-28.1 35.6-35.2 56.9z m77.7 25.9c3.1-9.3 8.4-18 15.4-24.9l389.6-389.6c3.4-3.4 6.6-5.6 9.1-7l50.9 50.9c-1.4 2.5-3.6 5.7-7 9.1L503.3 574.2c-6.9 6.9-15.6 12.3-24.9 15.4L413 611.4l21.8-65.4z" p-id="4451"></path><path d="M941.2 471.4c-22.6 0-41 18.3-41 41v348.2c0 22.6-18.4 41-41 41H162.9c-22.6 0-41-18.4-41-41V164.2c0-22.6 18.4-41 41-41h348.2c22.6 0 41-18.3 41-41s-18.3-41-41-41H162.9C95.1 41.2 40 96.3 40 164.1v696.3c0 67.8 55.1 122.9 122.9 122.9h696.3c67.8 0 122.9-55.1 122.9-122.9V512.3c0-22.6-18.3-40.9-40.9-40.9z" p-id="4452"></path></svg>