<?xml version="1.0" standalone="no"?><!DOCTYPE svg PUBLIC "-//W3C//DTD SVG 1.1//EN" "http://www.w3.org/Graphics/SVG/1.1/DTD/svg11.dtd"><svg t="1710058237277" class="icon" viewBox="0 0 1024 1024" version="1.1" xmlns="http://www.w3.org/2000/svg" p-id="4636" xmlns:xlink="http://www.w3.org/1999/xlink" width="200" height="200"><path d="M 959.5 187.23 c 0 -21.27 -9 -42.52 -24.81 -58.27 l -40.2 -40.26 c -15.76 -15.8 -37 -24.83 -58.3 -24.83 c -18.75 0 -36 6.94 -48.68 19.56 l -425.6 425.73 c -0.44 0.4 -0.32 1 -0.64 1.48 a 7.05 7.05 0 0 0 -1.38 2.39 l -43.73 160.33 a 27.26 27.26 0 0 0 33.36 33.38 l 159.18 -43.41 c 0.26 0 0.39 0.22 0.57 0.22 a 6.9 6.9 0 0 0 5 -2 l 425.65 -425.66 c 12.65 -12.65 19.58 -29.89 19.58 -48.66 Z m -117.66 -37.34 l 33.73 33.76 a 21.89 21.89 0 0 1 6.59 15.29 a 16.22 16.22 0 0 1 -4.6 11.57 l -23.06 23 L 791.91 171 l 23 -23 c 6.6 -6.67 19.37 -5.71 26.93 1.89 Z m -454 485.19 l 15.72 -74.39 l 58.38 58.37 Z m 128.2 -63 l -62.64 -62.64 L 743.82 219 l 62.65 62.65 Z" fill="#ffffff" p-id="4637"></path><path d="M 776 880 H 184 a 40 40 0 0 1 -40 -40 V 248 a 40 40 0 0 1 40 -40 h 352 a 40 40 0 0 0 40 -40 a 40 40 0 0 0 -40 -40 H 134 a 70 70 0 0 0 -70 70 v 692 a 70 70 0 0 0 70 70 h 692 a 70 70 0 0 0 70 -70 V 552 a 40 40 0 0 0 -40 -40 a 40 40 0 0 0 -40 40 v 288 a 40 40 0 0 1 -40 40 Z" fill="#ffffff" p-id="4638"></path></svg>