<?xml version="1.0" standalone="no"?><!DOCTYPE svg PUBLIC "-//W3C//DTD SVG 1.1//EN" "http://www.w3.org/Graphics/SVG/1.1/DTD/svg11.dtd"><svg t="1710246011322" class="icon" viewBox="0 0 3855 1024" version="1.1" xmlns="http://www.w3.org/2000/svg" p-id="13056" xmlns:xlink="http://www.w3.org/1999/xlink" width="752.9296875" height="200"><path d="M1588.90557 177.980729l48.066074-72.216574h119.436909l-47.878132 72.216574h234.504176v72.216573h-31.762137v102.005323l-99.609066 264.621822 131.418188 301.317427h-109.569973l-72.545472-168.019822-63.336331 168.019822H1588.106818l114.033588-301.317427L1588.106818 352.202625h106.750849l57.979995 131.935028 53.469395-142.929614V250.197302H1588.106818V177.980729h0.845738zM769.574011 126.625677c-8.786271 0.328898-17.431587 0.469854-25.841975 0.469854h-0.046985c-222.334955 0-320.252547-101.911352-321.098284-102.757089L400.362669 0l-22.224099 24.338442c-0.939708 1.080664-104.307608 110.603652-346.987244 102.287235L0 125.591998v461.913554c0 120.940442 40.360466 297.323667 389.509039 432.265761l10.85363 4.228687 10.853629-4.228687c349.148573-134.942094 389.509039-311.325319 389.509039-432.265761V125.591998l-31.151326 1.033679z m-253.298339 310.996421c9.256126-0.046985 18.512251-0.093971 27.721391-0.187942l5.12141-0.046985c49.005781-0.375883 82.553363 39.467743 73.955033 87.674773l-26.969624 151.386987c-5.873176 32.936772-37.306415 59.295586-70.71304 59.295586l-249.492521 0.234927c-13.719739 0-24.808296-11.088556-24.902267-24.761311l-0.469854-224.073414c0-13.578783 10.900615-24.66734 24.526383-24.902267l1.832431-0.046985h11.46444c53.657337 0.469854 99.750023-50.603285 99.609067-99.750023-0.093971-50.650271 23.210792-73.955033 62.11471-74.471873 36.319721-0.422869 62.208681 34.816188 62.63155 87.016977 0.140956 15.505185-3.664862 42.756722-8.457373 62.678535 3.617876 0 7.611636 0 11.981279-0.046985zM225.811875 474.552629l0.281912 248.928696a12.422942 12.422942 0 0 1-12.592089 12.498119h-24.66734c-3.335964 0-6.483986-1.268606-8.880242-3.617877-2.34927-2.34927-3.664862-5.544278-3.664862-8.880242l0.046985-248.928696c-0.046985-3.335964 1.268606-6.483986 3.617877-8.833257s5.544278-3.664862 8.833257-3.617876h24.526383c6.812884 0 12.498119 5.591264 12.498119 12.498119z m1120.367073-224.355327l-22.740938 116.899697h234.692118v447.442048c0 38.809948-11.276498 73.297238-33.500597 103.649812h-106.93879c23.633661-30.822428 35.239057-65.450674 35.239056-103.649812V439.313573H1309.01349l-93.406993 478.875286h-105.905111l130.337524-667.991557h-130.337524V177.980729h187.471781l-48.113059-72.216574h119.624851l48.066073 72.216574h139.405708v72.216573h-210.9175 0.845738z m1036.07525 667.991557c-34.393319 0-63.900156-10.665688-88.379554-32.185005-24.479398-21.331376-36.601633-46.797467-36.601633-76.116362V106.562907h104.119666v738.657612h346.846288v72.216574h-325.984767v0.751766z m377.715702-740.161145h104.166651v591.076443c0 38.668991 11.652381 73.250252 35.239057 103.508856h-106.938791c-21.707259-30.822428-32.466918-65.309718-32.466917-103.508856V178.027714z m-554.427824 0v591.076443c0 38.199137-10.759659 72.639442-32.466918 103.508856h-106.93879c23.633661-30.258603 35.239057-64.839864 35.239056-103.508856V178.027714h104.166652z m311.560246 0h104.166651v455.241626c0 38.668991 11.46444 73.57915 34.534276 104.401579h-106.046068c-21.707259-31.433239-32.654859-66.202441-32.654859-104.401579V178.027714z m1203.719189 636.511333v36.084794h-317.997247v-72.216573l142.177847-455.993393h115.959989l-143.023585 455.993393h98.76333v-20.297697c0-38.199137-11.793338-72.827384-35.426999-103.649811h106.938791c21.707259 30.822428 32.654859 65.450674 32.654859 103.649811v56.382491zM3506.990915 178.027714h348.725704v636.511333c0 38.199137-10.9476 72.827384-32.654859 103.649812h-106.750849c23.445719-30.39956 35.239057-64.839864 35.239057-103.649812V250.244287h-348.725704V178.027714l48.958796-72.216573h104.166651L3506.990915 178.027714z m-134.895109 0v366.627145c0 38.058181-10.9476 72.639442-32.654859 103.508856h-89.554189l-121.504267 270.025144h-105.905112l123.242727-278.623474V223.603561h104.166652v397.16766c11.981279-24.056529 18.042397-49.475635 18.042397-76.116362V178.027714h-141.285125v470.136001h-104.166651V105.811141h349.618427v72.216573z m-67.001193 588.680187l67.001193 151.480958h-106.046068l-67.893915-151.480958h106.93879z" p-id="13057"></path></svg>