<?xml version="1.0" standalone="no"?><!DOCTYPE svg PUBLIC "-//W3C//DTD SVG 1.1//EN" "http://www.w3.org/Graphics/SVG/1.1/DTD/svg11.dtd"><svg t="1710147592687" class="icon" viewBox="0 0 1024 1024" version="1.1" xmlns="http://www.w3.org/2000/svg" p-id="13196" xmlns:xlink="http://www.w3.org/1999/xlink" width="200" height="200"><path d="M1018.352941 512C1018.352941 245.863725 802.606863 30.117647 536.470588 30.117647 270.334313 30.117647 54.588235 245.863725 54.588235 512 54.588235 778.136275 270.334313 993.882353 536.470588 993.882353 802.606863 993.882353 1018.352941 778.136275 1018.352941 512ZM114.823529 512C114.823529 279.13076 303.601348 90.352941 536.470588 90.352941 769.339826 90.352941 958.117647 279.13076 958.117647 512 958.117647 744.869237 769.339826 933.647059 536.470588 933.647059 303.601348 933.647059 114.823529 744.869237 114.823529 512ZM312.395294 352.978824 312.395294 783.058824 361.185882 783.058824 361.185882 352.978824 312.395294 352.978824ZM475.202688 352.978824 475.202688 783.058824 524.595629 783.058824 524.595629 607.171765 650.487392 607.171765C749.273275 607.171765 799.268569 564.404706 799.268569 479.472941 799.268569 395.143529 749.875628 352.978824 651.089745 352.978824L475.202688 352.978824ZM524.595629 395.745882 648.077981 395.745882C682.412098 395.745882 707.710922 402.371765 724.576804 416.828235 741.442686 429.477647 749.875628 450.56 749.875628 479.472941 749.875628 508.385882 741.442686 529.468235 725.179157 543.322353 708.313275 557.176471 683.014451 564.404706 648.077981 564.404706L524.595629 564.404706 524.595629 395.745882Z" fill="#60666B" p-id="13197"></path></svg>