<?xml version="1.0" standalone="no"?><!DOCTYPE svg PUBLIC "-//W3C//DTD SVG 1.1//EN" "http://www.w3.org/Graphics/SVG/1.1/DTD/svg11.dtd"><svg t="1710066729615" class="icon" viewBox="0 0 1024 1024" version="1.1" xmlns="http://www.w3.org/2000/svg" p-id="8474" xmlns:xlink="http://www.w3.org/1999/xlink" width="200" height="200"><path d="M512 106.666667c223.861333 0 405.333333 181.472 405.333333 405.333333S735.861333 917.333333 512 917.333333a403.797333 403.797333 0 0 1-259.285333-93.76 42.666667 42.666667 0 1 1 54.613333-65.568A318.474667 318.474667 0 0 0 512 832c176.736 0 320-143.264 320-320 0-176.736-143.264-320-320-320-172.725333 0-313.493333 136.842667-319.786667 308.021333l10.666667-10.645333a32 32 0 0 1 46.698667 43.712l-1.44 1.536-75.413334 75.424a32 32 0 0 1-43.733333 1.44l-1.525333-1.44-75.424-75.413333a32 32 0 0 1 43.712-46.698667l1.536 1.44 9.578666 9.578667C113.76 281.130667 292.512 106.666667 512 106.666667z m-21.333333 181.333333a42.666667 42.666667 0 0 1 42.666666 42.666667v170.666666h149.333334a42.666667 42.666667 0 1 1 0 85.333334H490.666667a42.666667 42.666667 0 0 1-42.666667-42.666667V330.666667a42.666667 42.666667 0 0 1 42.666667-42.666667z" fill="#282F38" p-id="8475"></path></svg>