<?xml version="1.0" standalone="no"?><!DOCTYPE svg PUBLIC "-//W3C//DTD SVG 1.1//EN" "http://www.w3.org/Graphics/SVG/1.1/DTD/svg11.dtd"><svg t="1710066624767" class="icon" viewBox="0 0 1024 1024" version="1.1" xmlns="http://www.w3.org/2000/svg" p-id="4914" xmlns:xlink="http://www.w3.org/1999/xlink" width="200" height="200"><path d="M992 837.76c0 67.52-53.76 122.24-120 122.24H152C85.696 960 32 905.28 32 837.76V186.24C32 118.656 85.76 64 152 64h287.616c33.6 0 63.68 21.44 75.2 53.568l32.32 90.24c2.304 6.4 8.32 10.688 15.04 10.688h309.824c66.304 0 120 54.72 120 122.24V384a42.496 42.496 0 0 1-40 23.296 41.92 41.92 0 0 1-39.68-23.296h-0.32v-43.328a40.32 40.32 0 0 0-40-40.704H562.176c-40.384 0-76.48-25.728-90.24-64.32l-32.32-90.24H152a40.32 40.32 0 0 0-40 40.768v651.648c0 22.464 17.92 40.704 40 40.704h720a40.32 40.32 0 0 0 40-40.704V511.872c6.016-15.488 19.392-23.232 40-23.232 20.736 0 34.048 7.744 40 23.36v325.76zM505.6 386.112a35.2 35.2 0 0 1 35.2 35.2v174.784l64-56.832c16.256-15.168 42.688-16.64 57.6 0 14.912 16.64 9.472 38.272-6.848 53.44l-123.392 107.584a39.488 39.488 0 0 1-53.312 0.64l-120.32-107.072a41.152 41.152 0 0 1-13.056-38.592 31.936 31.936 0 0 1 23.424-26.88 37.824 37.824 0 0 1 38.656 6.72l62.784 57.856 0.064-171.648a35.2 35.2 0 0 1 35.2-35.2z" fill="#000000" fill-opacity=".85" p-id="4915"></path></svg>