<?xml version="1.0" standalone="no"?><!DOCTYPE svg PUBLIC "-//W3C//DTD SVG 1.1//EN" "http://www.w3.org/Graphics/SVG/1.1/DTD/svg11.dtd"><svg t="1710229945957" class="icon" viewBox="0 0 1024 1024" version="1.1" xmlns="http://www.w3.org/2000/svg" p-id="8397" xmlns:xlink="http://www.w3.org/1999/xlink" width="200" height="200"><path d="M924.595192 244.468468c13.837838-46.126126 27.675676-92.252252 32.288288-142.990991 32.288288 0 59.963964 27.675676 55.351351 64.576577v129.153153c0 96.864865-78.414414 175.279279-175.279279 175.279279-13.837838 152.216216-133.765766 276.756757-285.981982 295.207208v129.153153h110.702703c36.900901 0 64.576577 27.675676 64.576576 64.576576v46.126127c0 9.225225-9.225225 13.837838-13.837838 13.837837H301.892489c-9.225225 0-13.837838-9.225225-13.837838-13.837837v-46.126127c0-36.900901 27.675676-64.576577 64.576577-64.576576H463.33393v-129.153153c-46.126126-4.612613-92.252252-23.063063-129.153153-46.126126 13.837838 9.225225 27.675676 13.837838 41.513514 23.063063 212.18018-55.351351 392.072072-193.72973 493.549549-369.009009h-4.612612c13.837838-4.612613 27.675676-9.225225 36.900901-23.063063 13.837838-13.837838 23.063063-36.900901 23.063063-55.351352V244.468468z" fill="#F6721A" p-id="8398"></path><path d="M781.604201 9.225225c32.288288 0 59.963964 27.675676 64.576576 55.351352V101.477477h110.702703c-4.612613 50.738739-18.45045 96.864865-32.288288 142.990991v-46.126126h-78.414415v175.27928c9.225225 0 13.837838 0 23.063063-4.612613-101.477477 179.891892-281.369369 313.657658-493.549549 369.009009-64.576577-27.675676-115.315315-73.801802-152.216217-133.765766l9.225226 13.837838c96.864865-36.900901 179.891892-87.63964 253.693693-152.216216l32.288289-18.450451 59.963964 32.288289h9.225225c4.612613 0 4.612613 0 9.225225-4.612613s4.612613-9.225225 4.612613-13.837838v-4.612612l-13.837838-73.801802L638.61321 332.108108c4.612613-4.612613 4.612613-9.225225 4.612612-13.837838-4.612613-4.612613-4.612613-9.225225-9.225225-9.225225h-4.612613l-18.45045-4.612613c55.351351-92.252252 92.252252-193.72973 101.477477-304.432432l69.18919 9.225225z" fill="#FF9234" p-id="8399"></path><path d="M712.415011 9.225225c-9.225225 110.702703-41.513514 212.18018-101.477477 304.432433l-50.738739-9.225226-32.288288-64.576576c-4.612613-4.612613-9.225225-9.225225-13.837838-9.225225-4.612613 0-9.225225 0-13.837838 4.612612V239.855856l-32.288288 64.576576-64.576577 13.837838c-4.612613 0-9.225225 4.612613-13.837837 9.225225v18.450451l50.738738 50.738739-9.225225 69.189189c0 4.612613 0 13.837838 4.612613 13.837838 4.612613 4.612613 9.225225 4.612613 13.837838 4.612612h4.612612l27.675676-13.837838C412.595192 530.45045 324.955552 585.801802 232.7033 618.09009c-27.675676-41.513514-46.126126-87.63964-50.738739-133.765766V470.486486c-27.675676 0-50.738739-4.612613-73.801802-13.837837l9.225225 4.612612C288.054651 373.621622 407.982579 202.954955 407.982579 9.225225h304.432432z" fill="#F7B500" p-id="8400"></path><path d="M407.982579 9.225225c0 193.72973-119.927928 364.396396-295.207207 447.423424C48.198795 433.585586 2.072669 369.009009 2.072669 295.207207V170.666667c0-36.900901 27.675676-64.576577 64.576577-64.576577h110.702702v-32.288288C177.351948 36.900901 205.027624 9.225225 241.928525 9.225225h166.054054z m-230.630631 189.117117H98.937534v92.252253c0 23.063063 9.225225 41.513514 23.063063 55.351351 13.837838 13.837838 36.900901 23.063063 55.351351 23.063063V198.342342z" fill="#FFD259" p-id="8401"></path></svg>