<?xml version="1.0" standalone="no"?><!DOCTYPE svg PUBLIC "-//W3C//DTD SVG 1.1//EN" "http://www.w3.org/Graphics/SVG/1.1/DTD/svg11.dtd"><svg t="1710227930953" class="icon" viewBox="0 0 1024 1024" version="1.1" xmlns="http://www.w3.org/2000/svg" p-id="59292" xmlns:xlink="http://www.w3.org/1999/xlink" width="200" height="200"><path d="M306.01 115.93c18.05-15.05 41.52-23.52 65.03-23.2 25.6-0.28 51.09 9.89 69.6 27.54 22.88 22.86 45.73 45.74 68.61 68.59 21.62-21.59 43.23-43.21 64.83-64.82 9.68-10.06 21.37-18.21 34.27-23.56 20.58-8.65 44.04-10.13 65.6-4.44 17.69 4.61 33.9 14.28 46.72 27.28 78.53 78.47 157 156.99 235.51 235.48 8.6 8.77 17.94 17 24.69 27.36 16.21 23.89 21.25 54.82 13.86 82.68-4.33 16.76-13.11 32.33-25.17 44.74-67.33 67.32-134.65 134.64-201.98 201.97-34.4 34.6-69.17 68.81-103.62 103.36l-77.5 77.5c-6.66 6.73-13.55 13.34-21.58 18.44-24.97 16.54-57.39 20.86-85.93 11.97-15.44-4.73-29.66-13.31-41.15-24.64-128.83-128.83-257.66-257.67-386.51-386.5-19.03-18.24-30.3-44.31-30.56-70.67-0.83-26.77 9.67-53.66 28.42-72.79 81.69-81.68 163.37-163.37 245.06-245.05 3.86-3.83 7.57-7.81 11.8-11.24m27.66 37.78c-84 84-168.01 168-252.01 252.01-9.58 10.17-14.85 24.26-14.44 38.22 0.08 14.06 6.03 27.88 15.93 37.82 49.49 49.52 99.01 99.01 148.52 148.53 24.25 24.44 48.86 48.5 73.15 72.9 55.32 55.34 110.67 110.66 165.98 166 4.41 4.47 9.7 8 15.38 10.63 17.4 8.12 39.1 6.24 54.71-5.01 5.09-3.46 9.18-8.09 13.54-12.37l21.81-21.81c-30.79-30.84-61.65-61.61-92.42-92.47-6.59-6.32-9.19-16.51-5.88-25.1 2.61-7.45 9.34-13.16 17.05-14.74 7.33-1.59 15.41 0.61 20.81 5.86 31.15 31.14 62.29 62.29 93.44 93.43 16.6-16.57 33.18-33.16 49.76-49.75-29.48-29.46-58.94-58.94-88.42-88.41-2.67-2.7-5.52-5.29-7.62-8.48-4.48-6.8-4.98-16.02-1.21-23.25 2.95-5.91 8.56-10.42 14.99-11.97 7.62-2.02 16.23 0.2 21.87 5.73 31.13 31.12 62.25 62.26 93.39 93.38 16.63-16.61 33.25-33.23 49.86-49.86-31.18-31.12-62.23-62.39-93.52-93.39-5.81-6.16-7.9-15.54-5.09-23.54 2.36-7.15 8.43-12.87 15.67-14.87 7.75-2.25 16.62-0.14 22.41 5.51 31.14 31.13 62.27 62.28 93.42 93.41 4.56-4.55 9.11-9.12 13.67-13.67 6.28-6.41 13.3-12.4 17.55-20.46 9.16-16.19 9.3-37.01 0.25-53.27-4.36-8.56-11.83-14.78-18.41-21.54-61.12-61.13-122.28-122.22-183.36-183.39-30.72 28.85-61.16 58.01-91.77 86.98-7.03 7.43-16.31 12.18-25.4 16.62-18.43 8.56-39.25 12.13-59.45 9.39-21.46-2.73-41.67-11.97-59.21-24.42-15.22-10.86-28.83-23.98-40.34-38.72-7.6-9-6.82-23.6 1.83-31.64 48.77-48.72 97.48-97.49 146.24-146.21-21.78-21.94-43.72-43.73-65.56-65.63-6.14-6.26-13.64-11.24-21.98-14.03-18.66-6.51-40.79-2.12-55.14 11.58m274.88 1.86C531.8 232.35 455.03 309.1 378.27 385.86c14.93 14.31 32.82 26.92 53.59 30.49 16.35 2.85 33.45-2.04 46.8-11.62 36.86-34.81 73.55-69.82 110.38-104.68 8.7-8.39 23.88-8.02 32.26 0.65 69.54 69.49 139.04 139.02 208.55 208.54 13.75 13.78 23.38 31.55 27.43 50.59 26.63-26.58 53.22-53.2 79.82-79.81 10.42-11.11 15.61-26.79 14.23-41.93-1.1-12.87-6.83-25.33-16.15-34.31-83.02-82.97-165.99-165.99-249-248.97-9.83-9.64-23.38-15.42-37.17-15.58-14.97-0.53-30.08 5.52-40.46 16.34z" p-id="59293" fill="#232323"></path></svg>