<?xml version="1.0" standalone="no"?><!DOCTYPE svg PUBLIC "-//W3C//DTD SVG 1.1//EN" "http://www.w3.org/Graphics/SVG/1.1/DTD/svg11.dtd"><svg t="1710074499011" class="icon" viewBox="0 0 1024 1024" version="1.1" xmlns="http://www.w3.org/2000/svg" p-id="51557" xmlns:xlink="http://www.w3.org/1999/xlink" width="200" height="200"><path d="M901.632 1005.056h-732.16c-82.944 0.512-151.04-60.928-151.552-137.216V168.96C18.944 85.504 93.184 18.432 184.32 18.944h653.824c91.136-0.512 165.376 66.56 165.888 150.016v743.424c0 51.712-46.08 93.184-102.4 92.672zM187.904 89.088c-50.688-0.512-92.16 36.864-92.16 82.944v691.712c0.512 38.912 35.328 70.656 77.824 70.656h723.968c15.872 0 29.184-11.776 29.184-26.624V172.544c-0.512-46.08-41.472-83.456-92.16-83.456H187.904z" fill="#ee7ba3" p-id="51558"></path><path d="M909.312 1005.056H157.696c-75.264 2.048-137.728-52.736-139.776-121.344-2.048-69.12 57.344-126.464 132.608-128H1004.032v164.864c-0.512 47.104-43.008 84.992-94.72 84.48z m-751.616-184.32c-24.064-0.512-46.592 10.752-59.392 29.184-12.288 18.432-12.288 41.984 0 60.416 12.8 18.944 35.328 30.208 59.392 29.184h751.616c11.776 0 21.504-8.704 22.016-19.456v-99.84l-773.632 0.512z" fill="#ee7ba3" p-id="51559"></path><path d="M310.784 207.36h146.432V155.648H517.12v51.712h124.928v27.136c20.992-21.504 40.448-44.544 58.368-68.096l44.032 32.768c-28.672 39.424-60.928 75.264-95.744 107.008h116.736v56.32h-185.856c-26.112 18.432-47.616 32.768-65.536 43.52h220.672v53.248H450.56L436.736 501.76h271.36c-4.608 84.992-13.824 135.68-28.16 151.04s-41.984 23.552-83.456 23.552c-25.6 0-49.664-1.536-71.68-4.608l-18.944-51.712c30.208 3.072 56.32 4.608 77.824 4.608 27.648 0 45.056-4.096 51.712-11.776 6.144-8.704 10.24-28.16 13.312-58.88H365.568l24.064-84.48c-41.472 17.408-81.408 31.744-119.808 43.52l-24.576-53.76C330.752 434.176 407.04 402.432 474.624 363.52H268.8V307.2h188.928v-44.544H310.784V207.36z m248.832 99.328c18.432-13.824 36.352-28.672 53.76-44.544H517.12v44.544h42.496z" p-id="51560" fill="#ee7ba3"></path></svg>