<?xml version="1.0" standalone="no"?><!DOCTYPE svg PUBLIC "-//W3C//DTD SVG 1.1//EN" "http://www.w3.org/Graphics/SVG/1.1/DTD/svg11.dtd"><svg t="1710131827389" class="icon" viewBox="0 0 1024 1024" version="1.1" xmlns="http://www.w3.org/2000/svg" p-id="4270" xmlns:xlink="http://www.w3.org/1999/xlink" width="250" height="250"><path d="M646.9 352.9c4.8-4.8 9.4-7.7 14.2-8.9l3.5-1.8c-2.4-4.8-17.7-13.1-46.2-24.9-8.3 22.5-26.1 43.2-53.4 62.2l35.5 19.6c14.4-11.9 29.8-27.4 46.4-46.2zM410.3 390.2l35.6-24.9c-19-16.6-37.9-31.4-56.9-44.5l-33.8 24.9c23.7 14.2 42.1 29 55.1 44.5z" fill="#ee7ba3" p-id="4271"></path><path d="M593.5 507.5h37.3c4.8 1.1 17.2 1.8 37.3 1.8 21.4 1.1 34.4 1.8 39.1 1.8v-37.3c-16.6 1.1-41.5 2.4-74.6 3.5H486.9c8.3-9.4 15.4-23.7 21.4-42.7h96c32 0 59.3 1.1 81.8 3.5V399c-14.2 2.4-42.1 4.2-83.5 5.3h-83.5c3.5-14.2 8.3-39.1 14.2-74.6 1.1-4.8 4.1-8.9 8.9-12.4 2.4-3.5 3.5-5.9 3.5-7.1-1.1-1.1-18.4-3-51.5-5.3-2.4 32-5.9 65.2-10.7 99.6h-81.8c-29.6-1.1-50.4-2.4-62.2-3.5v37.3c11.8-1.1 32.5-2.4 62.2-3.5h71.1c-1.1 8.3-7.1 20.7-17.7 37.3-1.1 2.4-2.4 4.2-3.5 5.3h-72.9c-34.4 0-56.9-0.6-67.6-1.8V511c13.1-1.1 35.5-2.4 67.6-3.5h49.8c-28.4 33.2-71.1 56.9-128 71.1 19 10.7 30.3 21.4 33.8 32 24.9-11.8 44.5-22.5 58.7-32v19.6c29.6-1.1 46.2-1.8 49.8-1.8h21.4c-2.4 51-42.1 80.6-119.1 88.9 13.1 9.4 22.5 20.7 28.4 33.8 82.9-20.1 126.2-61.7 129.8-124.5h83.5c1.1 13.1 0.6 33.2-1.8 60.4 2.4 17.7-19 23.7-63.9 17.7 13.1 17.7 19.6 33.2 19.6 46.2 35.5-4.8 56.9-9.4 63.9-14.2 9.4-4.8 14.8-16 16-33.8 0-19 1.8-49.8 5.3-92.4 14.2 9.4 37.9 20.1 71.1 32 4.8-15.4 13.7-27.9 26.6-37.3-59.5-4.6-102.8-26.6-130.1-65.7z m-28.4 58.7H449.6c-19 0-30.8-0.6-35.5-1.8 24.9-21.4 43.2-40.3 55.1-56.9h92.4c8.3 19 22.5 37.9 42.7 56.9-6 1.2-19.1 1.8-39.2 1.8z" fill="#ee7ba3" p-id="4272"></path><path d="M1024 428.6V242.1c0-62.6-48.6-113.8-107.9-113.8H107.7C48.5 128.3 0 179.5 0 242.1v186.5C46.4 435 80.8 459 80.8 512S46.3 589 0 595.4v186.5c0 62.6 48.5 113.8 107.7 113.8h808.4c59.3 0 107.9-51.2 107.9-113.8V595.4c-46.4-6.4-80.9-30.4-80.9-83.4 0-52.9 34.5-77 80.9-83.4z m-64-47.7c-14.1 6.6-26.6 15-37.5 25.1-19.8 18.5-43.4 51.8-43.4 106s23.6 87.6 43.4 106c10.8 10.1 23.4 18.5 37.5 25v138.8c0 13.8-5 26.7-14.1 36.3-4.8 5-15 13.5-29.8 13.5H832V768c0-17.7-14.3-32-32-32s-32 14.3-32 32v63.7H256V768c0-17.7-14.3-32-32-32s-32 14.3-32 32v63.7h-84.3c-14.7 0-24.8-8.4-29.6-13.4C69 808.7 64 795.7 64 781.9V643c14.1-6.6 26.6-14.9 37.4-25 19.8-18.4 43.4-51.8 43.4-106s-23.6-87.5-43.4-106C90.6 395.9 78 387.5 64 380.9V242.1c0-13.8 5-26.8 14.1-36.4 4.7-5 14.9-13.4 29.6-13.4H192V256c0 17.7 14.3 32 32 32s32-14.3 32-32v-63.7h512V256c0 17.7 14.3 32 32 32s32-14.3 32-32v-63.7h84.1c14.8 0 25 8.4 29.8 13.5 9.1 9.6 14.1 22.5 14.1 36.3v138.8z" fill="#ee7ba3" p-id="4273"></path></svg>