<?xml version="1.0" standalone="no"?><!DOCTYPE svg PUBLIC "-//W3C//DTD SVG 1.1//EN" "http://www.w3.org/Graphics/SVG/1.1/DTD/svg11.dtd"><svg t="1710814268156" class="icon" viewBox="0 0 1024 1024" version="1.1" xmlns="http://www.w3.org/2000/svg" p-id="16424" xmlns:xlink="http://www.w3.org/1999/xlink" width="200" height="200"><path d="M233.984 531.456c6.656 0 11.776-5.12 11.776-11.776L245.76 302.592c0-3.072-1.536-6.144-3.584-8.704 51.712-97.792 155.648-160.256 268.8-160.256s217.088 62.464 268.8 160.768c-2.048 2.048-3.584 5.12-3.584 8.192l0 217.088c0 6.656 5.12 11.776 11.776 11.776 67.584 0 122.368-53.76 122.368-120.32 0-41.984-22.528-81.408-59.392-102.912-51.2-140.288-187.904-234.496-340.48-234.496S221.696 167.936 169.472 308.224C133.12 330.24 110.592 369.152 110.592 411.136 111.104 477.696 166.4 531.456 233.984 531.456z" p-id="16425" fill="#787878"></path><path d="M755.712 633.856c-4.608-2.048-9.728-1.536-13.312 2.048-62.976 57.856-144.896 89.6-231.424 89.6-86.016 0-168.448-31.744-231.424-89.088-3.584-3.072-8.704-4.096-13.312-2.048-123.904 62.464-192.512 170.496-192.512 304.128 0 6.656 5.12 11.776 11.776 11.776l853.504 0c6.656 0 11.776-5.12 11.776-11.776C950.272 804.352 881.152 696.32 755.712 633.856zM885.248 892.416 141.824 892.416c13.824-90.624 76.288-156.672 129.536-187.904 71.68 51.712 147.456 74.752 244.224 74.752 84.48 0 178.176-31.744 240.64-81.408C825.856 738.304 878.592 819.2 885.248 892.416z" p-id="16426" fill="#787878"></path><path d="M510.976 182.784c-138.752 0-251.904 110.592-251.904 246.784s113.152 247.296 251.904 247.296 251.392-111.104 251.392-247.296C762.368 293.376 649.728 182.784 510.976 182.784zM699.392 429.056c0 101.888-84.48 184.32-188.416 184.32s-188.416-82.944-188.416-184.32c0-99.84 86.528-184.32 188.416-184.32C614.4 244.736 699.392 327.168 699.392 429.056z" p-id="16427" fill="#787878"></path></svg>