<?xml version="1.0" standalone="no"?><!DOCTYPE svg PUBLIC "-//W3C//DTD SVG 1.1//EN" "http://www.w3.org/Graphics/SVG/1.1/DTD/svg11.dtd"><svg t="1710145764572" class="icon" viewBox="0 0 1024 1024" version="1.1" xmlns="http://www.w3.org/2000/svg" p-id="48727" xmlns:xlink="http://www.w3.org/1999/xlink" width="200" height="200"><path d="M306.016 117.632L444.352 256h135.296l138.368-138.336a42.688 42.688 0 1 1 60.352 60.352l-78.048 77.952h88.992a149.344 149.344 0 0 1 149.344 149.344v341.344A149.344 149.344 0 0 1 789.312 896H234.656a149.344 149.344 0 0 1-149.344-149.344V405.312a149.344 149.344 0 0 1 149.344-149.344h88.96L245.632 177.92a42.688 42.688 0 1 1 60.352-60.352z m483.328 223.712H234.688a64 64 0 0 0-63.68 57.6l-0.032 0.256-0.288 6.144v341.344a64 64 0 0 0 57.6 63.68l0.256 0.032 6.144 0.288h554.656a64 64 0 0 0 63.68-57.6l0.032-0.256 0.288-6.144V405.344a64 64 0 0 0-64-64z m-448 128c23.552 0 42.656 19.104 42.656 42.656v85.344a42.656 42.656 0 0 1-85.312 0V512c0-23.552 19.104-42.656 42.656-42.656z m341.312 0c23.552 0 42.656 19.104 42.656 42.656v85.344a42.656 42.656 0 0 1-85.312 0V512c0-23.552 19.104-42.656 42.656-42.656z" p-id="48728" fill="#67666e"></path></svg>