<?xml version="1.0" standalone="no"?><!DOCTYPE svg PUBLIC "-//W3C//DTD SVG 1.1//EN" "http://www.w3.org/Graphics/SVG/1.1/DTD/svg11.dtd"><svg t="1710074821127" class="icon" viewBox="0 0 1027 1024" version="1.1" xmlns="http://www.w3.org/2000/svg" p-id="60701" xmlns:xlink="http://www.w3.org/1999/xlink" width="200.5859375" height="200"><path d="M331.081076 387.723636a34.909091 34.909091 0 0 1 69.818182 0v209.454546a34.909091 34.909091 0 1 1-69.818182 0v-209.454546z" fill="#ee7ba3" p-id="60702"></path><path d="M261.262895 527.36a34.909091 34.909091 0 0 1 0-69.818182h209.454545a34.909091 34.909091 0 1 1 0 69.818182h-209.454545z" fill="#ee7ba3" p-id="60703"></path><path d="M362.313076 751.383273c10.938182-5.399273 21.736727-10.379636 33.093819-15.080728 34.117818-14.149818 67.397818-23.598545 99.607272-26.484363 6.283636-0.558545 12.474182-0.837818 18.618182-0.884364 40.029091-0.139636 80.197818 10.193455 120.832 27.648 17.92 7.68 65.210182 32.023273 48.965818 24.017455 129.210182 63.441455 183.714909 78.661818 218.763637 56.366545 62.277818-39.517091 74.007273-165.934545 25.134545-331.217454-55.016727-185.902545-136.378182-287.930182-238.871273-287.930182-17.128727 0-30.254545 4.933818-54.551272 19.130182l-8.471273 5.026909c-40.680727 23.970909-66.56 33.838545-106.123636 33.838545-39.889455 0-67.723636-9.774545-111.709091-33.047273a1279.674182 1279.674182 0 0 0-16.477091-8.750545c-22.481455-11.589818-36.677818-16.197818-52.130909-16.197818-102.493091 0-183.854545 102.027636-238.871273 287.930182-48.872727 165.282909-37.143273 291.700364 25.134545 331.217454 35.048727 22.248727 89.553455 7.074909 218.763637-56.32 0.465455-0.232727 12.613818-6.516364 18.292363-9.309091z m-274.432 124.555636C-9.073105 814.452364-23.595287 657.966545 33.190167 465.92c62.836364-212.340364 162.955636-337.92 305.803637-337.92 28.858182 0 52.596364 7.726545 84.061091 23.924364l17.314909 9.122909c34.676364 18.432 53.294545 24.948364 78.941091 24.948363 24.110545 0 39.842909-6.004364 70.656-24.203636l8.704-5.12c34.071273-19.921455 57.390545-28.672 89.786181-28.672 142.848 0 242.967273 125.579636 305.803637 337.92 56.785455 192.046545 42.263273 348.532364-54.690909 410.018909-65.861818 41.797818-132.189091 23.319273-286.952728-52.642909 14.289455 6.981818-30.394182-16.011636-45.754181-22.574545-32.581818-14.010182-63.906909-22.062545-92.997819-21.969455-4.096 0-8.331636 0.232727-12.660363 0.605091-24.157091 2.141091-50.920727 9.774545-79.034182 21.410909-9.867636 4.096-19.316364 8.471273-28.951273 13.218909-5.073455 2.466909-17.314909 8.750545-18.385454 9.309091-154.763636 75.962182-221.090909 94.440727-286.952728 52.642909z" fill="#ee7ba3" p-id="60704"></path><path d="M653.361804 558.545455m-46.545455 0a46.545455 46.545455 0 1 0 93.090909 0 46.545455 46.545455 0 1 0-93.090909 0Z" fill="#ee7ba3" p-id="60705"></path><path d="M769.72544 442.181818m-46.545455 0a46.545455 46.545455 0 1 0 93.09091 0 46.545455 46.545455 0 1 0-93.09091 0Z" fill="#ee7ba3" p-id="60706"></path></svg>