<?xml version="1.0" standalone="no"?><!DOCTYPE svg PUBLIC "-//W3C//DTD SVG 1.1//EN" "http://www.w3.org/Graphics/SVG/1.1/DTD/svg11.dtd"><svg t="1710075333248" class="icon" viewBox="0 0 1024 1024" version="1.1" xmlns="http://www.w3.org/2000/svg" p-id="89374" xmlns:xlink="http://www.w3.org/1999/xlink" width="200" height="200"><path d="M885.1 145H251.6c-42 0-76.1 34.1-76.1 76.1v36.1h-28.1c-46.4 0-84.2 37.8-84.2 84.2v336.7c0 46.4 37.8 84.2 84.2 84.2h56.1v84.2c0 11.3 6.9 21.6 17.3 25.9 3.5 1.4 7.1 2.1 10.7 2.1 7.3 0 14.5-2.9 19.8-8.2l104-104h409.3c46.4 0 84.2-37.8 84.2-84.2V650h36.1c42 0 76.1-34.1 76.1-76.1V221.1c0.2-42-33.9-76.1-75.9-76.1z m-92.3 533.2c0 15.5-12.6 28.1-28.1 28.1H343.8c-7.5 0-14.6 3-19.8 8.2l-64.3 64.3v-44.5c0-15.5-12.6-28.1-28.1-28.1h-84.2c-15.5 0-28.1-12.6-28.1-28.1V341.4c0-15.5 12.6-28.1 28.1-28.1h617.4c15.5 0 28.1 12.6 28.1 28.1v336.8zM905.1 574c0 11-9 20-20 20H849V341.4c0-46.4-37.8-84.2-84.2-84.2H231.6v-36.1c0-11 9-20 20-20h633.5c11 0 20 9 20 20V574z" p-id="89375" fill="#ee7ba3"></path><path d="M259.6 509.8m-28.1 0a28.1 28.1 0 1 0 56.2 0 28.1 28.1 0 1 0-56.2 0Z" p-id="89376" fill="#ee7ba3"></path><path d="M456.1 509.8m-28.1 0a28.1 28.1 0 1 0 56.2 0 28.1 28.1 0 1 0-56.2 0Z" p-id="89377" fill="#ee7ba3"></path><path d="M652.5 509.8m-28.1 0a28.1 28.1 0 1 0 56.2 0 28.1 28.1 0 1 0-56.2 0Z" p-id="89378" fill="#ee7ba3"></path></svg>