<?xml version="1.0" standalone="no"?><!DOCTYPE svg PUBLIC "-//W3C//DTD SVG 1.1//EN" "http://www.w3.org/Graphics/SVG/1.1/DTD/svg11.dtd"><svg t="1710074628829" class="icon" viewBox="0 0 1024 1024" version="1.1" xmlns="http://www.w3.org/2000/svg" p-id="53586" xmlns:xlink="http://www.w3.org/1999/xlink" width="200" height="200"><path d="M806.787879 698.181818a31.030303 31.030303 0 0 1 62.060606 0v82.168243c0 83.068121-66.715152 150.55903-149.255758 150.55903H335.437576c-82.540606 0-149.255758-67.490909-149.255758-150.55903V212.619636C186.181818 129.551515 252.89697 62.060606 335.437576 62.060606h186.181818c33.605818 0 66.187636 11.419152 92.501333 32.395636l197.973334 157.696a151.055515 151.055515 0 0 1 56.754424 118.163394V574.060606a31.030303 31.030303 0 1 1-62.060606 0v-203.74497c0-27.213576-12.31903-52.875636-33.357576-69.632l-197.973333-157.696A86.357333 86.357333 0 0 0 521.650424 124.121212H335.437576C287.340606 124.121212 248.242424 163.653818 248.242424 212.619636v567.730425C248.242424 829.315879 287.340606 868.848485 335.437576 868.848485h384.155151c48.09697 0 87.195152-39.532606 87.195152-88.498424V698.181818z m-420.398546-182.30303c-22.745212 0-41.177212 18.432-41.177212 41.177212v158.130424c0 22.745212 18.432 41.177212 41.177212 41.177212h282.251637c22.745212 0 41.177212-18.432 41.177212-41.177212v-158.130424c0-22.745212-18.432-41.177212-41.177212-41.177212h-282.251637z m0-38.787879h282.251637a79.965091 79.965091 0 0 1 79.965091 79.965091v158.130424a79.965091 79.965091 0 0 1-79.965091 79.965091h-282.251637a79.965091 79.965091 0 0 1-79.965091-79.965091v-158.130424a79.965091 79.965091 0 0 1 79.965091-79.965091z" fill="#FB7199" p-id="53587"></path></svg>