<?xml version="1.0" standalone="no"?><!DOCTYPE svg PUBLIC "-//W3C//DTD SVG 1.1//EN" "http://www.w3.org/Graphics/SVG/1.1/DTD/svg11.dtd"><svg t="1710209413775" class="icon" viewBox="0 0 1024 1024" version="1.1" xmlns="http://www.w3.org/2000/svg" p-id="15037" xmlns:xlink="http://www.w3.org/1999/xlink" width="200" height="200"><path d="M375.61301387 293.16438388a20.03424697 20.03424697 0 0 0-30.05137002 16.9520546v399.914383a20.03424697 20.03424697 0 0 0 30.05137001 17.72260313l343.66438302-198.80137002a20.03424697 20.03424697 0 0 0 0-34.67465771z" fill="#1f0b23" p-id="15038"></path><path d="M855.66438388 62H168.33561612A106.33561612 106.33561612 0 0 0 62 168.33561612v687.32876776a106.33561612 106.33561612 0 0 0 106.33561612 106.33561612h687.32876776a106.33561612 106.33561612 0 0 0 106.33561612-106.33561612V168.33561612A106.33561612 106.33561612 0 0 0 855.66438388 62z m48.54451993 793.66438388a48.5445208 48.5445208 0 0 1-48.54451993 48.54451993H168.33561612a48.5445208 48.5445208 0 0 1-48.54451993-48.54451993V168.33561612a48.5445208 48.5445208 0 0 1 48.54451993-48.54451993h687.32876776a48.5445208 48.5445208 0 0 1 48.54451993 48.54451993z" fill="#1f0b23" p-id="15039"></path></svg>