<?xml version="1.0" standalone="no"?><!DOCTYPE svg PUBLIC "-//W3C//DTD SVG 1.1//EN" "http://www.w3.org/Graphics/SVG/1.1/DTD/svg11.dtd"><svg t="1710145538848" class="icon" viewBox="0 0 1024 1024" version="1.1" xmlns="http://www.w3.org/2000/svg" p-id="31724" xmlns:xlink="http://www.w3.org/1999/xlink" width="200" height="200"><path d="M541.87 55.47l-0.06 296.95c44.59-51.23 110.27-83.62 183.53-83.62 134.32 0 243.2 108.88 243.2 243.2v29.87l-296.95-0.06c51.23 44.59 83.62 110.27 83.62 183.53 0 134.32-108.88 243.2-243.2 243.2h-29.87l0.02-296.91c-44.59 51.21-110.26 83.58-183.49 83.58-134.32 0-243.2-108.88-243.2-243.2v-29.87l296.95 0.06c-51.23-44.59-83.62-110.27-83.62-183.53 0-134.32 108.88-243.2 243.2-243.2h29.87z m0 488.83v362.03l5-0.83c81.83-15.74 144.32-85.85 148.39-171.27l0.21-8.89c0-89.41-63.95-163.87-148.6-180.16l-5-0.88z m-62.17-2.43H117.67l0.83 5c15.74 81.83 85.85 144.32 171.27 148.39l8.89 0.21c89.41 0 163.87-63.95 180.16-148.6l0.88-5z m245.63-213.34c-89.41 0-163.87 63.95-180.16 148.6l-0.88 5h362.03l-0.83-5c-15.74-81.83-85.85-144.32-171.27-148.39l-8.89-0.21z m-243.2-210.9l-5 0.88c-84.65 16.28-148.6 90.75-148.6 180.16l0.21 8.89c4.07 85.42 66.56 155.53 148.39 171.27l5 0.83V117.63z" p-id="31725" fill="#67666e"></path></svg>