<?xml version="1.0" standalone="no"?><!DOCTYPE svg PUBLIC "-//W3C//DTD SVG 1.1//EN" "http://www.w3.org/Graphics/SVG/1.1/DTD/svg11.dtd"><svg t="1710075026706" class="icon" viewBox="0 0 1024 1024" version="1.1" xmlns="http://www.w3.org/2000/svg" p-id="67796" xmlns:xlink="http://www.w3.org/1999/xlink" width="200" height="200"><path d="M153.6 204.8v546.133333c0 9.352533 7.714133 17.066667 17.186133 17.066667h716.561067C896.853333 768 904.533333 760.337067 904.533333 750.933333V204.8c0-9.352533-7.714133-17.066667-17.186133-17.066667H170.786133C161.28 187.733333 153.6 195.396267 153.6 204.8z m-51.2 0c0-37.717333 30.6176-68.266667 68.386133-68.266667h716.561067A68.386133 68.386133 0 0 1 955.733333 204.8v546.133333c0 37.717333-30.6176 68.266667-68.386133 68.266667H170.786133A68.386133 68.386133 0 0 1 102.4 750.933333V204.8z" fill="#ee7ba3" p-id="67797"></path><path d="M435.2 607.419733v-234.325333l197.3248 117.162667L435.2 607.419733z m231.3216-156.5184l-214.6304-127.4368c-33.160533-19.677867-67.8912 0.136533-67.8912 38.741334V618.325333c0 38.690133 34.645333 58.487467 67.8912 38.741334l214.6304-127.419734c32.768-19.456 32.836267-59.221333 0-78.728533zM324.266667 913.066667h409.6a25.6 25.6 0 0 0 0-51.2H324.266667a25.6 25.6 0 0 0 0 51.2z" fill="#ee7ba3" p-id="67798"></path></svg>