<?xml version="1.0" standalone="no"?><!DOCTYPE svg PUBLIC "-//W3C//DTD SVG 1.1//EN" "http://www.w3.org/Graphics/SVG/1.1/DTD/svg11.dtd"><svg t="1710124353715" class="icon" viewBox="0 0 1024 1024" version="1.1" xmlns="http://www.w3.org/2000/svg" p-id="36388" xmlns:xlink="http://www.w3.org/1999/xlink" width="200" height="200"><path d="M514.928 104.432c193.88 0 352.705 146.648 359.668 331.117l0.238 12.635v242.968H789.5V448.184c0-142.208-122.446-258.42-274.572-258.42-147.9 0-267.747 109.846-274.291 246.631l-0.282 11.789v242.968h-85.333V448.184c0-190.362 161.62-343.752 359.906-343.752z" fill="#ee7ba3" p-id="36389"></path><path d="M935.662 527.94c31.418 0 56.888 25.47 56.888 56.888v212.647c0 31.419-25.47 56.889-56.888 56.889h-89.233c-31.42 0-56.89-25.47-56.89-56.89V584.829c0-31.419 25.47-56.889 56.89-56.889h89.233z m-28.455 85.322h-32.37v155.762h32.37V613.262z" fill="#ee7ba3" p-id="36390"></path><path d="M387.839 574.47c15.912-19.624 44.84-20.928 62.507-4.093l4.168 4.586 60.615 77.04 45.916-47.596a42.668 42.668 0 0 1 23.847-12.5l6.873-0.558h118.312c23.564 0 42.666 19.103 42.666 42.667 0 21.6-16.05 39.452-36.877 42.277l-5.79 0.39-100.17-0.047-67.303 69.872c-16.466 17.085-43.288 17.23-59.972 1.465l-4.283-4.694-57.94-73.583-68.74 84.871c-13.491 16.64-36.924 20.472-54.824 9.88l-5.189-3.611c-16.639-13.492-20.471-36.924-9.88-54.825l3.612-5.188L387.839 574.47z" fill="#ee7ba3" p-id="36391"></path><path d="M104.593 527.94c-31.419 0-56.889 25.47-56.889 56.888v212.647c0 31.419 25.47 56.889 56.889 56.889h78.513c31.42 0 56.89-25.47 56.89-56.89V584.829c0-31.419-25.47-56.889-56.89-56.889h-78.513z m28.482 85.322h21.618v155.762h-21.618V613.262z" fill="#ee7ba3" p-id="36392"></path></svg>