<?xml version="1.0" standalone="no"?><!DOCTYPE svg PUBLIC "-//W3C//DTD SVG 1.1//EN" "http://www.w3.org/Graphics/SVG/1.1/DTD/svg11.dtd"><svg t="1710211791017" class="icon" viewBox="0 0 1024 1024" version="1.1" xmlns="http://www.w3.org/2000/svg" p-id="28542" xmlns:xlink="http://www.w3.org/1999/xlink" width="200" height="200"><path d="M694.418292 6.972794H329.608314C151.72326 6.972794 6.976888 151.704841 6.976888 329.605244v364.803838c0 177.913707 144.746372 322.618124 322.631426 322.618124h364.809978c177.900404 0 322.604821-144.703394 322.60482-322.618124V329.605244c0-177.900404-144.704417-322.63245-322.60482-322.63245z m259.171219 687.436288c0 143.139785-116.043714 259.184523-259.171219 259.184522H329.608314c-143.125459 0-259.17122-116.044738-259.171219-259.184522V329.605244c0-143.154111 116.044738-259.170196 259.171219-259.170196h364.809978c143.126482 0 259.17122 116.017108 259.171219 259.170196v364.803838z" fill="#ffffff" p-id="28543"></path><path d="M136.590638 592.777583c11.679994 0 21.148627-9.46761 21.148627-21.148627V321.560027c0-90.35878 73.479378-163.852484 163.823832-163.852484h380.887109c38.466003 0 75.888236 13.666227 105.365535 38.46498 8.903769 7.510029 22.261982 6.369045 29.81499-2.535748 7.49468-8.975401 6.369045-22.304961-2.593053-29.828293-37.084543-31.195427-84.17393-48.399217-132.586449-48.399216H321.563097c-113.663509 0-206.135412 92.486229-206.135412 206.150761v250.068929c-0.001023 11.681017 9.481936 21.148627 21.162953 21.148627zM866.288364 304.610017v397.844282c0 90.344454-73.493704 163.837135-163.838158 163.837135H321.563097c-90.344454 0-163.823832-73.492681-163.823832-163.837135 0-11.665667-9.468633-21.14965-21.148627-21.14965-11.681017 0-21.163976 9.483983-21.163976 21.14965 0 113.677835 92.471903 206.149738 206.135412 206.149738h380.887109c113.677835 0 206.164064-92.471903 206.164064-206.149738V304.610017c0-11.695343-9.495239-21.148627-21.162953-21.148627-11.693297 0-21.16193 9.454307-21.16193 21.148627z" fill="#ffffff" p-id="28544"></path><path d="M386.939953 333.451845c-6.551193-3.255131-14.356957-2.930743-20.584787 0.943486a21.125091 21.125091 0 0 0-10.032473 17.978431v319.278059c0 7.342207 3.804645 14.132854 10.032473 18.008106a21.112811 21.112811 0 0 0 11.13048 3.156894c3.226478 0 6.467282-0.761338 9.454307-2.241037l319.286245-159.652844c7.158013-3.579518 11.665667-10.905352 11.665668-18.92294s-4.507655-15.329096-11.665668-18.92294l-319.286245-159.625215z m11.681017 303.990918V386.613519L649.471703 512 398.62097 637.442763z" fill="#ffffff" p-id="28545"></path></svg>