<?xml version="1.0" standalone="no"?><!DOCTYPE svg PUBLIC "-//W3C//DTD SVG 1.1//EN" "http://www.w3.org/Graphics/SVG/1.1/DTD/svg11.dtd"><svg t="1710226928239" class="icon" viewBox="0 0 1024 1024" version="1.1" xmlns="http://www.w3.org/2000/svg" p-id="51641" xmlns:xlink="http://www.w3.org/1999/xlink" width="200" height="200"><path d="M948.6848 325.1456L535.1424 83.584a49.7152 49.7152 0 0 0-50.304 0L75.9552 325.3248a50.8672 50.8672 0 0 0 0 87.296l108.2368 64a32.6656 32.6656 0 0 0-0.4608 5.12v304.128c0 57.728 96.4608 165.4784 328.832 165.4784 126.848 0 205.1072-30.464 248.32-56.0384 49.3568-29.1584 81.28-68.5568 81.28-100.3264v-320l106.496-62.2336a50.816 50.816 0 0 0 0-87.5008zM779.392 793.344c-5.12 16.3328-70.1696 94.976-266.8032 94.976-192 0-262.8352-80.0256-266.0096-103.04V513.3056l238.336 140.8a49.6128 49.6128 0 0 0 50.2528 0.1536l244.2496-142.6688v281.7792z m-269.2096-197.248L125.568 368.8448l384.6144-227.1232 388.864 227.1232-388.864 227.2512z m406.784-216.6784s0-0.0512 0 0z" fill="#232323" p-id="51642"></path><path d="M937.7024 844.0064a31.4368 31.4368 0 0 1-31.4112-31.4112V496.5632a31.4112 31.4112 0 0 1 62.7968 0v316.0576a31.4368 31.4368 0 0 1-31.4112 31.4112z" fill="#232323" p-id="51643"></path></svg>