<?xml version="1.0" standalone="no"?><!DOCTYPE svg PUBLIC "-//W3C//DTD SVG 1.1//EN" "http://www.w3.org/Graphics/SVG/1.1/DTD/svg11.dtd"><svg t="1710075452762" class="icon" viewBox="0 0 1024 1024" version="1.1" xmlns="http://www.w3.org/2000/svg" p-id="101024" xmlns:xlink="http://www.w3.org/1999/xlink" width="200" height="200"><path d="M898.496 189.141333a244.053333 244.053333 0 0 1 4.885333 341.546667l-4.906666 4.992L534.826667 897.301333a32.277333 32.277333 0 0 1-43.029334 2.197334l-2.432-2.197334-43.861333-43.605333a31.829333 31.829333 0 0 1 0-45.205333 32.277333 32.277333 0 0 1 43.029333-2.197334l2.432 2.197334 21.12 20.992 340.949334-338.986667a180.394667 180.394667 0 0 0 4.266666-251.776l-4.266666-4.394667c-71.146667-70.72-186.453333-70.72-257.6 0l-190.869334 189.802667a32.277333 32.277333 0 0 1-45.44 0 31.829333 31.829333 0 0 1 0-45.226667l190.848-189.76c96.234667-95.701333 252.266667-95.701333 348.522667 0zM421.12 149.077333c15.466667 8.682667 20.906667 28.202667 12.16 43.562667-8.768 15.36-28.373333 20.757333-43.818667 12.053333a182.997333 182.997333 0 0 0-218.496 29.653334 180.394667 180.394667 0 0 0-4.266666 251.733333l4.266666 4.394667 192.298667 191.210666 15.04-15.488a3926.805333 3926.805333 0 0 1 88.533333-86.805333l155.136-146.218667c29.397333-27.882667 47.509333-45.653333 57.6-56.725333a32.277333 32.277333 0 0 1 45.44-2.133333c13.12 11.861333 14.08 32.085333 2.133334 45.141333l-6.314667 6.741333a1477.909333 1477.909333 0 0 1-44.416 43.669334l-140.458667 132.245333-15.872 15.061333c-58.453333 55.68-101.717333 98.624-132.245333 132.010667a32.277333 32.277333 0 0 1-44.138667 3.242667l-2.346666-2.133334L125.482667 535.68a244.074667 244.074667 0 0 1 0-346.538667C204.330667 110.72 325.546667 95.232 421.12 149.077333z" fill="#ee7ba3" p-id="101025"></path></svg>