<?xml version="1.0" standalone="no"?><!DOCTYPE svg PUBLIC "-//W3C//DTD SVG 1.1//EN" "http://www.w3.org/Graphics/SVG/1.1/DTD/svg11.dtd"><svg t="1710123577411" class="icon" viewBox="0 0 1024 1024" version="1.1" xmlns="http://www.w3.org/2000/svg" p-id="26974" xmlns:xlink="http://www.w3.org/1999/xlink" width="200" height="200"><path d="M489.427099 0.002505c76.900917 0.51322 146.236967 23.577337 206.23241 71.789243 68.966532 55.427783 109.510929 127.658395 120.432255 215.603811 9.063469 72.938857-6.333137 140.837891-46.271934 202.763041-19.2047 29.766772-43.870064 54.575837-72.19982 75.751303a347.460348 347.460348 0 0 1-69.910857 40.636777c-3.654128 1.580718-4.485545 3.602806-4.352107 7.339049 0.585071 16.423047 1.426752 32.846094 1.02644 49.187025-0.236081 8.765801-2.258169 17.634246-4.598453 26.143437-4.393165 16.002206-15.653216 26.543749-29.766772 34.242053-22.088998 12.029882-46.282199 16.423047-70.937298 18.5991a304.904128 304.904128 0 0 1-75.710246-3.079321c-20.32352-3.315403-40.031177-8.827388-58.260758-18.824917-19.143114-10.459428-28.483722-26.687451-30.310786-48.016883a235.054857 235.054857 0 0 1 2.525044-57.254847c0.626129-3.941531-0.225817-5.737802-3.921003-7.308256a310.80616 310.80616 0 0 1-103.218849-71.183643c-48.047676-49.864476-77.845242-108.864271-86.816331-178.005299a305.879246 305.879246 0 0 1 17.038911-148.833861c16.813094-44.855447 42.894945-83.860183 77.588632-117.014208 41.652952-39.928532 90.501252-66.975238 146.154852-81.684129A330.45223 330.45223 0 0 1 489.427099 0.002505z m76.983032 574.950338c2.340284-0.86221 4.105762-1.549925 5.840446-2.155524 70.906504-24.295845 124.815156-69.531074 163.399051-133.344876 16.084321-26.605336 27.395695-55.284081 31.162731-86.220995 5.132202-41.847976-2.052881-82.207614-18.763331-120.729923q-34.0265-78.255818-103.588367-128.027914c-62.10991-44.506457-131.055913-60.118616-205.801305-44.732274-65.076323 13.384783-117.794303 48.540368-159.354876 99.944504-43.192613 53.374902-64.029354 114.263348-58.199172 183.455697 4.105762 48.684069 23.207818 91.065794 53.888122 128.479548 29.007206 35.371137 64.511781 62.951591 104.399256 85.009796 11.639834 6.435781 23.546543 12.378872 35.340344 18.547778-2.432664 12.204377-5.275904 24.336902-7.185083 36.623395-2.853504 18.291168-4.177613 36.70551-1.868122 55.21223 1.221464 9.74092 2.33002 10.921326 11.506397 12.666275 40.103027 7.585395 80.616631 7.646981 121.181557 6.333137a137.963857 137.963857 0 0 0 20.354313-2.124731c15.601894-2.863769 16.423047-6.158643 17.367372-20.220877 1.868122-26.892739-0.102644-53.631512-7.31852-79.795478-0.790359-2.832976-1.488339-5.635158-2.340284-8.919768zM95.325299 1023.948678c14.903915-13.549014 29.038-26.420577 43.202877-39.281875q48.427459-43.993237 96.813861-88.027531a12.953678 12.953678 0 0 1 9.484309-3.797829q244.292821 0.143702 488.524055 0.184759c2.637952 0 5.953354 0.76983 7.800948 2.442928q68.925474 62.243347 137.543016 124.794627c1.108556 1.02644 2.360813 1.857857 4.711362 3.684921z m654.797139-51.137262c-9.720391-8.847916-18.629894-16.782301-27.31358-24.963031a12.758654 12.758654 0 0 0-9.535631-3.684921q-214.710808 0.143702-429.421616 0.092379c-8.211523 0-17.192877-1.909179-24.336902 0.882739s-12.471251 10.377313-18.568308 15.879034c-4.105762 3.695186-8.119144 7.451957-12.902356 11.845122zM488.954937 815.150167c-27.867858 0-55.745979-0.297668-83.613837 0.102644-18.157731 0.266875-32.517633-12.666275-34.396019-28.658217-1.98103-16.843887 10.264404-33.020588 27.139085-35.217171a75.617866 75.617866 0 0 1 9.710126-0.687715q81.560956-0.061586 163.121912-0.061586c14.370166 0 26.10238 4.844799 33.359314 17.870328 10.746831 19.286816-3.428311 45.697128-25.558366 46.189819-29.90021 0.718508-59.831212 0.174495-89.751951 0.174495z m1.108555-34.6321c-27.200671 0-54.401342-0.061586-81.591749 0.112909-2.268433 0-4.526602 1.621776-6.795036 2.483985 2.196583 0.739037 4.393165 2.104203 6.600012 2.114468q81.335139 0.174495 162.680543 0.092379a14.442017 14.442017 0 0 0 4.105762-0.143701c0.913532-0.277139 2.155525-1.365166 2.196582-2.145261a3.212759 3.212759 0 0 0-2.001559-2.299226 16.946531 16.946531 0 0 0-4.588188-0.205289zM489.437364 820.148932c18.804389 0 37.608777-0.071851 56.454223 0a22.725391 22.725391 0 0 1 21.770801 15.68401c3.079321 9.29955 0.205288 19.143114-8.365489 24.829593a26.831153 26.831153 0 0 1-13.795359 4.413694c-37.434282 0.34899-74.868565 0.297668-112.302847 0.133437-13.487427-0.061586-23.60813-10.151496-23.464428-22.715126s10.336255-22.314815 23.844211-22.376401c18.5991-0.041058 37.228994 0.020529 55.858888 0.030793z m-56.177085 23.484957v0.687715H544.700916v-0.687715z" p-id="26975" fill="#ee7ba3"></path><path d="M534.374925 126.942392l-69.541338 135.059031H614.396221l-171.415551 227.756865-0.831417-0.472162 83.490664-178.056621H366.04896l167.432962-184.892713z" p-id="26976" fill="#ee7ba3"></path></svg>