<?xml version="1.0" standalone="no"?><!DOCTYPE svg PUBLIC "-//W3C//DTD SVG 1.1//EN" "http://www.w3.org/Graphics/SVG/1.1/DTD/svg11.dtd"><svg t="1710074798218" class="icon" viewBox="0 0 1024 1024" version="1.1" xmlns="http://www.w3.org/2000/svg" p-id="59528" xmlns:xlink="http://www.w3.org/1999/xlink" width="200" height="200"><path d="M995.539 476.163h-63.806V324.494c0-11.59-9.379-20.968-20.967-20.968H95.025c-24.449 0-45.089-28.135-45.089-61.428 0-33.294 20.64-61.41 45.089-61.41h815.741c11.588 0 20.967-9.377 20.967-20.967 0-11.588-9.379-20.968-20.967-20.968H95.025C47.028 138.752 8 185.111 8 242.098v564.125c0 47.978 39.028 87.024 87.025 87.024h815.741c11.588 0 20.967-9.379 20.967-20.968V725.3h63.806c11.588 0 20.968-9.378 20.968-20.969v-207.2c0-11.59-9.38-20.968-20.968-20.968z m-105.741 375.15H95.025c-24.857 0-45.089-20.23-45.089-45.09V330.064c13.186 9.584 28.503 15.398 45.089 15.398h794.772v130.701h-81.13c-68.674 0-124.577 55.88-124.577 124.579 0 68.678 55.903 124.558 124.577 124.558h81.13v126.013z m84.772-167.949H808.668c-45.58 0-82.641-37.062-82.641-82.622 0-45.559 37.061-82.644 82.641-82.644H974.57v165.266z" fill="#ee7ba3" p-id="59529"></path><path d="M910.767 221.129H108.378c-11.592 0-20.967 9.377-20.967 20.968 0 11.59 9.375 20.967 20.967 20.967h802.389c11.588 0 20.967-9.377 20.967-20.967-0.001-11.59-9.38-20.968-20.967-20.968zM807.646 586.203c-3.81 3.789-5.897 9.234-5.897 14.684 0 5.035 2.088 10.482 5.897 14.68 4.179 3.768 9.623 6.288 15.071 6.288s10.933-2.521 15.11-6.288c3.77-4.197 5.856-9.645 5.856-14.68 0-5.449-2.087-10.895-6.265-15.093-7.984-7.557-20.968-7.965-29.772 0.409z" fill="#ee7ba3" p-id="59530"></path></svg>