<?xml version="1.0" standalone="no"?><!DOCTYPE svg PUBLIC "-//W3C//DTD SVG 1.1//EN" "http://www.w3.org/Graphics/SVG/1.1/DTD/svg11.dtd"><svg t="1710212325155" class="icon" viewBox="0 0 1024 1024" version="1.1" xmlns="http://www.w3.org/2000/svg" p-id="39614" xmlns:xlink="http://www.w3.org/1999/xlink" width="200" height="200"><path d="M884.3 129.4H140.4c-42 0-76.1 45.7-76.1 102v441.7c0 56.3 34.1 102 76.1 102h63.5c4.9 0 9.2 3.1 10.6 7.8l32 101.1c2.1 6.8 10 9.8 16.1 6.3l200.2-113.7c1.7-1 3.6-1.5 5.5-1.5h415.9c42 0 76.1-45.7 76.1-102V231.4c0-56.3-34-102-76-102z m30 543.7c0 17.1-4.8 33.4-13.2 44.6-2.6 3.4-9.3 11.4-16.9 11.4H465.4c-8 0-15.8 2.1-22.7 6l-153.3 87.1c-6.2 3.5-14 0.4-16.1-6.3L258.4 769c-7.5-23.8-29.6-39.9-54.5-39.9h-63.5c-7.6 0-14.4-8-16.9-11.4-8.4-11.2-13.1-27.5-13.1-44.6V231.4c0-17.1 4.8-33.4 13.1-44.6 2.6-3.4 9.3-11.4 16.9-11.4h743.9c7.6 0 14.4 8 16.9 11.4 8.4 11.2 13.2 27.4 13.2 44.6v441.7z" p-id="39615" fill="#ffffff"></path><path d="M749.9 274.1h-575c-22.1 0-39.5 16.3-39.5 37.2 0 20.9 17.3 37.2 39.5 37.2h575c22.1 0 39.5-16.3 39.5-37.2 0-20.8-17.3-37.2-39.5-37.2zM749.9 400h-575c-22.1 0-39.5 16.7-39.5 38.1 0 21.4 17.3 38.1 39.5 38.1h575c22.1 0 39.5-16.8 39.5-38.1 0-21.4-17.3-38.1-39.5-38.1zM559.6 530.3h-390c-19.8 0-34.2 15.8-34.2 37.6s14.4 37.6 34.2 37.6h390c19.8 0 34.2-15.8 34.2-37.6 0-21.7-14.4-37.6-34.2-37.6z" p-id="39616" fill="#ffffff"></path></svg>