<?xml version="1.0" standalone="no"?><!DOCTYPE svg PUBLIC "-//W3C//DTD SVG 1.1//EN" "http://www.w3.org/Graphics/SVG/1.1/DTD/svg11.dtd"><svg t="1710124235237" class="icon" viewBox="0 0 1024 1024" version="1.1" xmlns="http://www.w3.org/2000/svg" p-id="32471" xmlns:xlink="http://www.w3.org/1999/xlink" width="200" height="200"><path d="M657.772246 720.947245c27.199358 0 51.168519-16.545181 61.056209-42.15134a5.469436 5.469436 0 0 0-2.649857-6.871014l-34.196295-17.092672 34.196295-17.109098a5.463961 5.463961 0 0 0 2.649857-6.876488c-9.893164-25.55141-33.862325-42.080167-61.056209-42.091117-36.358885 0-65.92888 29.641169-65.92888 66.071228 0 36.462908 29.57547 66.120502 65.92888 66.120501zM310.022317 654.569423c0 36.468383 29.57547 66.136926 65.928879 66.136926 27.166509 0 51.12472-16.528757 61.034309-42.091117a5.485861 5.485861 0 0 0-2.644382-6.871013l-34.114171-17.152897 34.103221-17.076247a5.463961 5.463961 0 0 0 2.655332-6.865539c-9.86579-25.58426-33.829476-42.113016-61.034309-42.113016-36.35341-0.005475-65.92888 29.619269-65.928879 66.032903z" fill="#ee7ba3" p-id="32472"></path><path d="M936.708017 570.660935c0.186147-8.781757 0.197097-17.700388 0.0219-26.421921 2.606058-132.947267-36.939225-245.111771-114.359943-324.355634-36.013965-36.873526-79.868003-65.62776-130.379534-85.496212-10.210709-72.290726-89.848766-128.441415-183.168626-128.441415-93.303435 0-172.919593 56.150688-183.130302 128.441415-50.506055 19.846553-94.360093 48.600786-130.385008 85.496212-77.480942 79.287663-117.04265 191.238645-114.398268 323.545347-0.218996 11.869607-0.164247 22.792055 0.158773 33.303885-25.25029 26.536894-33.446232 59.698431-23.706365 96.095639 8.475162 31.787334 32.011805 57.508466 63.016227 68.918181a101.110658 101.110658 0 0 0 47.7029 14.689187c38.937568 162.686984 173.795578 267.542481 344.727778 267.542481 170.636555 0 305.204395-104.795274 344.120063-267.427508 22.857754-0.169722 44.36868-7.790799 62.304489-22.058417 23.531168-13.53398 40.32272-35.313177 47.336081-61.401128 0.027375-0.076649 0.054749-0.153298 0.076649-0.240896 13.216435-49.438447-8.486112-82.632833-29.936814-102.189216zM390.952453 363.643596a21.5383 21.5383 0 0 0-29.619269-7.451354 21.751822 21.751822 0 0 0-7.451354 29.679493c2.792205 4.670099 69.547796 114.814361 194.737113 162.435138 34.333168 13.085038 69.312375 20.525442 103.147325 27.719475l0.63509 0.131398c66.733692 14.185495 129.766343 27.577127 172.076456 82.654733 0.120448 0.164247 0.246371 0.339444 0.372294 0.492742l-0.016424 0.810287c0 20.087449-1.489176 40.05445-4.451103 59.364461-55.838618 88.852332-146.952089 144.751175-256.877355 157.661015-10.418756-11.749159-28.754233-18.937718-48.748608-18.937717-31.825658 0-57.711038 18.138381-57.711038 40.410319 0 22.655182 25.348838 40.393894 57.711038 40.393894 26.131751 0 48.63911-12.220002 55.384201-29.55357 36.408159-4.500377 71.321667-13.440907 103.842639-26.586169 46.881664-19.014366 88.38149-46.471046 123.355222-81.658299-47.763125 111.425391-154.146122 179.467586-283.923415 179.467586h-1.24828c-183.716117 0-312.015184-131.950833-312.015185-320.972139l-0.344919-18.346427c-0.175197-6.011452 0.536541-22.19529 2.058567-46.909038 101.773123-38.067057 144.127035-142.150592 145.900906-146.60717a21.729922 21.729922 0 0 0-12.050279-28.091769 21.532825 21.532825 0 0 0-28.05892 12.02838c-1.615099 3.843388-40.114674 93.577181-124.280482 123.300473-5.316139-4.440153-18.395701-14.508514-35.647146-14.508514-1.582249 0-3.175448 0.087599-4.763173 0.25732-1.81767-114.825311 31.590237-210.696479 96.670505-277.375421 62.49611-63.919587 153.647905-98.072083 263.715519-98.89332l0.218996 13.58873a5.474911 5.474911 0 0 0 5.474911 5.387312h1.292079a5.474911 5.474911 0 0 0 5.474912-5.557035l-0.208047-13.408057c109.585821 1.116882 200.20655 35.247478 262.374165 98.88237 65.096693 66.624193 98.488176 162.741733 96.659556 278.180233-15.981266 1.483701-25.502136 9.416847-30.807325 16.167413-5.359938 6.821739-8.371139 15.192878-8.776282 19.726105a40.541717 40.541717 0 0 0-0.361345 1.85052c-0.656989 3.70104-1.396102 11.798433-2.233763 24.642575-49.230401-44.32488-111.16807-57.475617-171.211421-70.23216l-1.018333-0.218997c-32.072029-6.843639-65.249991-13.917224-96.276312-25.732082-109.717219-41.757147-170.488732-140.070126-173.001716-144.192734z m119.112166-261.350357h-2.48561c-46.892614 0-91.431016 5.403737-132.547598 16.090764 19.052691-40.601941 73.215986-69.131703 133.795878-69.131703 60.601791 0 114.781511 28.529762 133.812303 69.126228-41.100158-10.676077-85.633085-16.085289-132.574973-16.085289z" fill="#ee7ba3" p-id="32473"></path></svg>