<?xml version="1.0" standalone="no"?><!DOCTYPE svg PUBLIC "-//W3C//DTD SVG 1.1//EN" "http://www.w3.org/Graphics/SVG/1.1/DTD/svg11.dtd"><svg t="1710125575363" class="icon" viewBox="0 0 1024 1024" version="1.1" xmlns="http://www.w3.org/2000/svg" p-id="50108" width="250" height="250" xmlns:xlink="http://www.w3.org/1999/xlink"><path d="M657.067 874.667H352c-59.733 0-106.667-46.934-106.667-106.667v-6.4l12.8-247.467c-2.133 2.134-6.4 4.267-8.533 4.267-14.933 6.4-32 6.4-46.933 0-6.4-2.133-12.8-6.4-19.2-12.8l-83.2-81.067c-25.6-23.466-25.6-64-2.134-89.6l145.067-160C262.4 153.6 288 140.8 317.867 140.8c27.733-2.133 55.466 8.533 76.8 27.733 2.133 0 2.133 2.134 4.266 4.267 25.6 25.6 59.734 36.267 106.667 36.267s83.2-12.8 106.667-36.267c19.2-19.2 46.933-32 74.666-32 27.734 0 55.467 10.667 74.667 32l4.267 4.267 145.066 160c23.467 25.6 21.334 64-2.133 89.6l-83.2 81.066C814.933 518.4 800 524.8 782.933 524.8c-10.666 0-21.333-4.267-32-8.533l12.8 247.466c2.134 59.734-42.666 108.8-100.266 113.067-4.267-2.133-4.267-2.133-6.4-2.133z m-386.134-422.4c19.2 0 32 14.933 32 32L288 768c0 36.267 27.733 64 64 64h309.333c36.267-2.133 61.867-32 59.734-68.267l-14.934-279.466c0-12.8 6.4-25.6 19.2-29.867 8.534-2.133 17.067-2.133 23.467 0 8.533 4.267 12.8 8.533 17.067 17.067 0 2.133 2.133 4.266 4.266 6.4 4.267 4.266 8.534 6.4 12.8 6.4 4.267 0 8.534-2.134 12.8-4.267l83.2-81.067c8.534-8.533 8.534-21.333 0-29.866l-147.2-162.134c-12.8-12.8-27.733-19.2-44.8-19.2s-34.133 6.4-44.8 19.2c-32 32-78.933 49.067-136.533 49.067s-104.533-17.067-136.533-49.067l-2.134-2.133c-12.8-10.667-29.866-17.067-46.933-17.067s-32 8.534-44.8 21.334L128 366.933c-8.533 8.534-6.4 21.334 0 29.867l83.2 81.067c2.133 2.133 4.267 2.133 6.4 4.266 4.267 2.134 8.533 2.134 12.8 0 4.267-2.133 8.533-4.266 10.667-10.666 4.266-10.667 17.066-19.2 29.866-19.2z m454.4 36.266c2.134 0 2.134 0 0 0 2.134 0 2.134 0 0 0z m23.467-6.4z" fill="#ee7ba3" p-id="50109"></path></svg>