<?xml version="1.0" standalone="no"?><!DOCTYPE svg PUBLIC "-//W3C//DTD SVG 1.1//EN" "http://www.w3.org/Graphics/SVG/1.1/DTD/svg11.dtd"><svg t="1710227035447" class="icon" viewBox="0 0 1024 1024" version="1.1" xmlns="http://www.w3.org/2000/svg" p-id="54366" xmlns:xlink="http://www.w3.org/1999/xlink" width="200" height="200"><path d="M128.064 489.44c15.168 3.872 25.76 17.536 25.76 33.184 0 196.8 160.128 356.928 356.928 356.928 154.4 0 290.656-98.432 339.008-244.896a34.24 34.24 0 0 1 43.328-21.824c17.952 5.952 27.776 25.28 21.824 43.328a424.864 424.864 0 0 1-404.16 291.968c-197.248 0-363.584-134.848-411.552-317.312l-2.848 5.248a34.368 34.368 0 0 1-62.976-6.944 34.24 34.24 0 0 1 2.88-26.048l53.248-96.96a34.272 34.272 0 0 1 38.56-16.672zM512 256c139.104 0 256 58.432 256 144 0 22.72-8.224 43.488-22.912 61.76 14.72 18.4 22.912 39.168 22.912 61.536 0 21.792-7.584 41.824-21.184 59.584 13.664 17.824 21.184 37.856 21.184 59.328 0 85.568-116.896 144-256 144-139.104 0-256-58.432-256-144 0-21.536 7.52-41.568 21.184-59.392-13.6-17.728-21.184-37.76-21.184-59.52 0-22.4 8.16-43.168 22.88-61.536C264.224 443.52 256 422.72 256 400 256 314.432 372.896 256 512 256z m-185.76 368.256a32.448 32.448 0 0 0-6.24 17.952c0 38.144 83.68 80 192 80s192-41.856 192-80c0-5.664-2.016-11.712-6.208-17.92l-5.632 3.104c-46.592 25.28-110.592 39.904-180.16 39.904-72.384 0-138.752-15.808-185.76-43.04z m369.28-122.016l-3.36 1.856C645.568 529.376 581.568 544 512 544c-71.232 0-136.64-15.328-183.488-41.76-5.76 7.296-8.512 14.464-8.512 21.056 0 38.176 83.68 80 192 80s192-41.824 192-80c0-6.592-2.752-13.76-8.48-21.056zM510.752 97.056c196.96 0 363.104 134.56 411.36 316.48l3.008-5.504a34.24 34.24 0 0 1 42.336-15.68l4.16 1.92a34.24 34.24 0 0 1 13.76 46.432l-53.248 98.272a34.336 34.336 0 0 1-64.416-16.32c0-196.8-160.096-357.024-356.896-357.024A355.232 355.232 0 0 0 169.472 417.6a34.304 34.304 0 0 1-65.504-20.224A423.424 423.424 0 0 1 510.72 97.056zM512 320c-108.32 0-192 41.856-192 80s83.68 80 192 80 192-41.856 192-80-83.68-80-192-80z" fill="#232323" p-id="54367"></path></svg>