<?xml version="1.0" standalone="no"?><!DOCTYPE svg PUBLIC "-//W3C//DTD SVG 1.1//EN" "http://www.w3.org/Graphics/SVG/1.1/DTD/svg11.dtd"><svg t="1710124467938" class="icon" viewBox="0 0 1024 1024" version="1.1" xmlns="http://www.w3.org/2000/svg" p-id="42153" xmlns:xlink="http://www.w3.org/1999/xlink" width="200" height="200"><path d="M626.952 297.48c2.364 19.436 11.174 33.15 18.418 41.402 21.402 24.376 58.83 37.166 102.8 37.166 25.896 0 54.068-4.44 82.558-13.564 48.752-15.614 92.006-42.9 125.084-78.908 39.122-42.588 62.028-94.578 68.084-154.528a20.002 20.002 0 0 0-5.086-15.448c-76.754-84.6-204.22-85.884-290.05-61.284-75.126 21.536-127.02 63.866-135.426 110.472-3.782 20.966-0.556 50.948 31.128 82.33-10.644 8.516-20.088 17.42-28.404 26.774-13.192 14.84-23.746 30.988-31.802 48.816-8.056-17.826-18.612-33.976-31.802-48.816-8.324-9.364-17.778-18.274-28.434-26.798 31.676-31.376 34.908-61.354 31.128-82.316-8.4-46.598-60.28-88.924-135.39-110.458C313.93 27.712 186.462 28.994 109.698 113.6a20.002 20.002 0 0 0-5.086 15.448c6.056 59.952 28.962 111.944 68.082 154.532 33.076 36.01 76.326 63.296 125.074 78.908 28.488 9.124 56.64 13.56 82.536 13.56 43.954 0 81.384-12.792 102.782-37.16 7.252-8.26 16.07-21.994 18.424-41.464 33.502 36.81 42.748 78.924 42.748 129.088v99.84c-26.248 1.542-52.028 7.11-76.124 16.71-53.108 21.158-97.574 61.042-129.05 115.594l-116.046 34.502c-6.5-19.298-24.752-33.24-46.212-33.24H48.704C21.848 659.918 0 681.792 0 708.678v225.746c0 26.854 21.848 48.704 48.704 48.704h128.122c23.782 0 43.63-17.098 47.9-39.63 0 0 305.888 36.858 309.682 37.478 11.94 1.95 28.004 4.572 46.982 4.572 18.014 0 38.652-2.362 60.88-9.904l316.194-107.346c0.308-0.104 0.614-0.216 0.916-0.336 39.022-15.412 59.49-51.296 49.774-87.266-8.708-32.248-43.944-63.012-100.702-54.346l-0.27 0.044-23.264 3.876c-0.162 0.026-0.322 0.056-0.484 0.086l-76.682 14.722c-3.188-46.786-20.43-90.306-50.566-127.058-32.362-39.464-78.426-68.926-129.706-82.958a258.992 258.992 0 0 0-43.224-7.922v-100.628c0-50.14 9.238-92.236 42.696-129.032z m5.746-127.592c5.51-30.544 48.544-62.34 107.084-79.122 26.958-7.728 57.006-12.16 87.322-12.16 57.432 0 115.814 15.904 155.93 55.454-18.128 133.346-130.014 179.282-164.502 190.328-59.996 19.214-120.178 14.21-143.102-11.9-11.106-12.648-12.062-30.258-2.902-52.382 29.188-18.518 67.464-35.704 117.434-52.022 10.5-3.428 16.232-14.72 12.802-25.22a19.996 19.996 0 0 0-25.22-12.804c-48.472 15.828-87.782 32.83-119.4 51.806-19.956-17.446-28.528-34.892-25.446-51.978z m-162.362 51.962c-31.612-18.968-70.912-35.964-119.368-51.786-10.5-3.428-21.792 2.302-25.22 12.802s2.302 21.792 12.804 25.22c49.926 16.304 88.178 33.474 117.356 51.974 9.182 22.15 8.232 39.776-2.882 52.434-22.918 26.102-83.084 31.108-143.06 11.898-34.486-11.044-146.36-56.978-164.488-190.332 61.296-60.432 165.226-65.664 243.256-43.292 58.524 16.78 101.542 48.57 107.048 79.106 3.08 17.084-5.494 34.53-25.446 51.976zM176.824 943.128h-128.12c-4.718 0-8.704-3.986-8.704-8.704V708.678c0-4.75 3.986-8.762 8.704-8.762h128.122c4.75 0 8.76 4.012 8.76 8.762v225.746c-0.002 4.798-3.93 8.704-8.762 8.704z m714.906-173.444l22.876-3.812c32.598-4.938 51.572 9.118 55.93 25.252 4.33 16.036-5.642 31.488-25.428 39.462l-315.696 107.176c-36.202 12.284-67.714 7.138-88.562 3.734-4.24-0.692-315.266-38.184-315.266-38.184v-169.184l125.456-37.3c39.904-11.872 71.196-19.534 93.74-18.262l115.934 20.86 0.402 0.068c43.588 6.926 57.598 29.158 56.176 47.654-1.102 14.3-11.518 29.534-28.658 29.662l-99.864 0.406c-11.046 0.044-19.964 9.036-19.918 20.082s8.944 19.934 20.082 19.918l99.686-0.406h0.228l56.794-0.23a19.888 19.888 0 0 0 3.69-0.358z m-274.808-196.042c74.1 20.276 147.254 83.026 151.206 179.042l-117.174 22.496c3.376-7.642 5.536-16.046 6.22-24.962 2.66-34.584-19.208-78.932-89.572-90.192l-116.872-21.03a20.17 20.17 0 0 0-2.164-0.268c-15.056-1.038-31.65 0.706-50.622 4.548 62.99-77.26 151.268-88.162 218.978-69.634z" p-id="42154" fill="#ee7ba3"></path></svg>