<?xml version="1.0" standalone="no"?><!DOCTYPE svg PUBLIC "-//W3C//DTD SVG 1.1//EN" "http://www.w3.org/Graphics/SVG/1.1/DTD/svg11.dtd"><svg t="1710123515352" class="icon" viewBox="0 0 1024 1024" version="1.1" xmlns="http://www.w3.org/2000/svg" p-id="25911" xmlns:xlink="http://www.w3.org/1999/xlink" width="200" height="200"><path d="M986.66756 94.48l-43.16-15.7c-25.52-9.82-56.92 4-66.74 27.48l-27.46 60.82C698.18756 21.86 470.54756-11.5 282.18756 82.7 154.56756 145.5 62.32756 255.4 21.12756 390.82-18.13244 524.26-2.43244 667.54 66.18756 787.24 107.46756 858 160.44756 914.8 223.26756 954a211.02 211.02 0 0 0 110 31.4c58.86 0 117.74-23.56 158.96-78.5 39.24-49.06 58.88-135.42 51.02-217.84-5.88-54.96 5.88-94.2 33.36-115.8 25.52-19.62 62.8-23.54 106-9.8l-23.56 52.98c-7.84 19.64 2 43.18 21.6 51.04l137.38 51.02c4 2 9.8 2 13.74 2 5.88 0 11.76-2 17.66-4 9.8-5.9 15.68-13.74 17.66-21.6l27.48-92.24a113.74 113.74 0 0 0 25.5 4 87.86 87.86 0 0 0 66.72-29.42c35.34-39.26 43.18-109.9 15.7-180.56-5.88-15.7-21.58-41.22-29.42-52.98 0-2-2-2-4-4l53-184.46c5.88-27.48-7.86-53-35.34-60.84zM551.00756 542c-27.48 21.6-56.92 64.76-47.12 151.12 7.86 70.66-9.8 149.16-41.2 190.36C405.76756 958 307.64756 962 244.84756 922.66c-56.92-37.3-106-90.28-143.26-155.04A474.24 474.24 0 0 1 58.40756 402.6C95.68756 276.98 182.04756 176.9 297.82756 118 474.46756 29.72 694.18756 67 833.58756 206.34l-37.28 84.38a77.34 77.34 0 0 0-41.22-11.76 78.72 78.72 0 0 0-78.48 78.5c0 37.28 25.5 66.72 58.86 76.54L694.18756 528.18c-53-19.62-106-13.72-143.26 13.74z m202.14-145.22a38.72 38.72 0 0 1-35.34-39.24 39.36 39.36 0 0 1 39.26-39.26c11.76 0 19.62 4 25.5 9.82z m212 15.7c21.58 54.96 17.66 111.86-7.86 139.34-13.72 13.74-31.4 19.62-52.98 13.74l51.02-174.66a72.6 72.6 0 0 0 9.82 21.58z m17.66-266.9l-155.1 535.68L694.18756 632.2 914.06756 122c2-5.9 9.8-7.86 15.7-5.9l43.18 15.7c9.8 2 11.76 7.86 9.8 13.74z m0 0" p-id="25912" fill="#ee7ba3"></path><path d="M829.66756 779.4c-5.88-23.56-23.54-41.22-41.2-47.1L694.18756 698.92c-21.6-7.84-45.14-4-64.76 9.82-45.14 33.36-64.78 92.24-49.08 147.2l29.44 104c4 13.74 15.7 25.52 29.44 31.4a50.8 50.8 0 0 0 41.22-5.88l90.28-60.84c47.1-31.4 70.64-88.32 56.9-143.26a2 2 0 0 0 2-2z m-80.46 113.82L658.92756 954a3.68 3.68 0 0 1-5.88 0c-2 0-4-4-5.88-5.9l-29.44-104c-11.78-37.3 2-80.46 33.36-104 5.88-4 11.78-7.84 19.62-7.84 2 0 5.9 0 7.86 2l96.16 33.36c5.88 2 11.78 9.82 15.7 17.66v4c9.82 39.26-5.9 80.48-41.22 104zM313.52756 598.84a117.76 117.76 0 1 0 117.76 117.76 118 118 0 0 0-117.76-117.76z m0 196.26a78.52 78.52 0 1 1 78.5-78.5 78.74 78.74 0 0 1-78.5 78.5zM280.18756 500.72a78.5 78.5 0 1 0-78.5-78.5A78.72 78.72 0 0 0 280.18756 500.72z m0-117.76a39.26 39.26 0 1 1-39.24 39.26A39.36 39.36 0 0 1 280.18756 382.96z m223.72-180.54a78.5 78.5 0 1 0 78.5 78.5 78.74 78.74 0 0 0-78.5-78.5z m0 117.74a39.26 39.26 0 1 1 39.26-39.24 39.36 39.36 0 0 1-39.26 39.24z m0 0" p-id="25913" fill="#ee7ba3"></path></svg>