<?xml version="1.0" standalone="no"?><!DOCTYPE svg PUBLIC "-//W3C//DTD SVG 1.1//EN" "http://www.w3.org/Graphics/SVG/1.1/DTD/svg11.dtd"><svg t="1710226883507" class="icon" viewBox="0 0 1024 1024" version="1.1" xmlns="http://www.w3.org/2000/svg" p-id="50406" xmlns:xlink="http://www.w3.org/1999/xlink" width="200" height="200"><path d="M505.018182 90.763636l167.563636 232.727273 269.963637 109.381818-186.181819 209.454546 9.309091 290.909091-256-104.727273-272.290909 104.727273 18.618182-290.909091-172.218182-214.109091 269.963637-104.727273 151.272727-232.727273m0-69.818181c-23.272727 0-46.545455 11.636364-58.181818 30.254545l-141.963637 214.109091-249.018182 97.745454c-20.945455 6.981818-37.236364 25.6-41.890909 46.545455-4.654545 20.945455 0 44.218182 13.963637 62.836364l155.927272 193.163636-16.290909 262.981818c-2.327273 23.272727 9.309091 46.545455 27.927273 60.509091 11.636364 9.309091 25.6 13.963636 41.890909 13.963636 9.309091 0 16.290909-2.327273 25.6-4.654545l246.690909-95.418182 230.4 95.418182c9.309091 4.654545 18.618182 4.654545 25.6 4.654545 13.963636 0 27.927273-4.654545 39.563637-11.636363 18.618182-13.963636 30.254545-34.909091 30.254545-60.509091l-9.309091-262.981818 167.563637-188.509091c13.963636-16.290909 20.945455-39.563636 16.290909-62.836364-4.654545-20.945455-20.945455-39.563636-41.890909-48.872727l-251.345455-102.4-155.927273-216.436364c-11.636364-16.290909-32.581818-27.927273-55.854545-27.927272z" fill="#232323" p-id="50407"></path></svg>