<?xml version="1.0" standalone="no"?><!DOCTYPE svg PUBLIC "-//W3C//DTD SVG 1.1//EN" "http://www.w3.org/Graphics/SVG/1.1/DTD/svg11.dtd"><svg t="1710226828085" class="icon" viewBox="0 0 1024 1024" version="1.1" xmlns="http://www.w3.org/2000/svg" p-id="49319" xmlns:xlink="http://www.w3.org/1999/xlink" width="200" height="200"><path d="M733.184 536.576c-13.824 0-24.576 11.264-24.576 24.576v49.152c0 13.824 11.264 24.576 24.576 24.576 13.824 0 24.576-11.264 24.576-24.576v-49.152c0-13.824-10.752-24.576-24.576-24.576z m0 172.032c-13.824 0-24.576 11.264-24.576 24.576v49.152c0 13.824 11.264 24.576 24.576 24.576 13.824 0 24.576-11.264 24.576-24.576v-49.152c0-13.312-10.752-24.576-24.576-24.576z" p-id="49320" fill="#232323"></path><path d="M856.064 315.392h-2.048l-310.784-260.608C515.584 31.744 482.304 20.48 448.512 20.48c-41.984 0-83.968 17.92-113.152 52.224L261.12 161.792c5.632-0.512 11.264-1.536 16.896-1.536 7.168 0 14.336 0.512 21.504 2.048-7.168-1.024-14.336-2.048-21.504-2.048-60.416 0-117.248 37.376-138.752 96.768l-25.088 68.096C59.392 347.136 20.48 400.896 20.48 462.848v393.216C20.48 936.96 87.04 1003.52 167.936 1003.52h688.128c80.896 0 147.456-66.56 147.456-147.456v-127.488c-7.68 2.56-15.872 4.608-24.576 4.608s-16.896-1.536-24.576-4.608c-28.672-10.24-49.152-37.376-49.152-69.12s20.48-58.88 49.152-69.12c7.68-2.56 15.872-4.608 24.576-4.608s16.896 1.536 24.576 4.608V462.848c0-81.408-66.048-147.456-147.456-147.456zM373.248 104.448c18.432-22.016 46.08-34.816 75.264-34.816 23.04 0 45.568 8.192 62.976 23.04l265.728 222.72h-47.616L328.192 169.472c-2.56-1.024-5.12-1.536-7.68-2.048l52.736-62.976zM185.344 274.432C199.68 236.032 236.544 209.92 278.016 209.92c11.264 0 22.528 2.048 33.28 6.144l274.432 99.84H170.496l14.848-41.472zM142.848 317.44c-1.024 0-2.048 0-3.072 0.512 1.024 0 2.048 0 3.072-0.512z m-15.872 3.584z m827.392 218.112c-56.32 11.264-98.304 60.928-98.304 120.32s41.984 109.056 98.304 120.32v76.288c0 54.272-44.032 98.304-98.304 98.304H757.76v-49.152c0-13.824-11.264-24.576-24.576-24.576-13.824 0-24.576 11.264-24.576 24.576v49.152H167.936c-54.272 0-98.304-44.032-98.304-98.304V462.848c0-54.272 44.032-98.304 98.304-98.304h540.672v73.728c0 13.824 11.264 24.576 24.576 24.576 13.824 0 24.576-11.264 24.576-24.576V364.544h98.304c54.272 0 98.304 44.032 98.304 98.304v76.288z" p-id="49321" fill="#232323"></path><path d="M507.904 486.912c-9.728-9.728-25.088-9.728-34.816 0L389.12 570.88 305.152 486.912c-9.728-9.728-25.088-9.728-34.816 0-9.728 9.728-9.728 25.088 0 34.816l71.68 71.68h-51.2c-13.824 0-24.576 11.264-24.576 24.576 0 13.824 11.264 24.576 24.576 24.576h73.728v49.152H290.816c-13.824 0-24.576 11.264-24.576 24.576s11.264 24.576 24.576 24.576h73.728v73.728c0 13.824 11.264 24.576 24.576 24.576 13.824 0 24.576-11.264 24.576-24.576v-73.728h73.728c13.824 0 24.576-11.264 24.576-24.576s-11.264-24.576-24.576-24.576H413.696v-49.152h73.728c13.824 0 24.576-11.264 24.576-24.576 0-13.824-11.264-24.576-24.576-24.576h-51.2l71.68-71.68c9.216-9.728 9.216-25.088 0-34.816z" p-id="49322" fill="#232323"></path></svg>