<?xml version="1.0" standalone="no"?><!DOCTYPE svg PUBLIC "-//W3C//DTD SVG 1.1//EN" "http://www.w3.org/Graphics/SVG/1.1/DTD/svg11.dtd"><svg t="1710225277948" class="icon" viewBox="0 0 1024 1024" version="1.1" xmlns="http://www.w3.org/2000/svg" p-id="41925" xmlns:xlink="http://www.w3.org/1999/xlink" width="200" height="200"><path d="M796.444444 56.888889a170.666667 170.666667 0 0 1 170.666667 170.666667v568.888888a170.666667 170.666667 0 0 1-170.666667 170.666667H227.555556a170.666667 170.666667 0 0 1-170.666667-170.666667V227.555556a170.666667 170.666667 0 0 1 170.666667-170.666667h568.888888zM227.555556 0a227.555556 227.555556 0 0 0-227.555556 227.555556v568.888888a227.555556 227.555556 0 0 0 227.555556 227.555556h568.888888a227.555556 227.555556 0 0 0 227.555556-227.555556V227.555556a227.555556 227.555556 0 0 0-227.555556-227.555556H227.555556z" fill="#fac732" p-id="41926"></path><path d="M739.555556 426.666667a56.888889 56.888889 0 1 1-113.777778 0 56.888889 56.888889 0 0 1 113.777778 0zM398.222222 426.666667c0 31.431111-31.857778 56.888889-71.111111 56.888889S256 458.097778 256 426.666667s31.857778-56.888889 71.111111-56.888889 71.111111 25.457778 71.111111 56.888889zM636.785778 312.32c-5.774222 5.888-10.325333 10.780444-13.425778 14.136889l-4.551111 5.12a28.444444 28.444444 0 1 1-42.922667-37.376l5.518222-6.144a709.688889 709.688889 0 0 1 64.995556-62.378667c20.280889-17.038222 43.975111-34.673778 68.693333-48.156444 24.32-13.283556 52.081778-23.921778 79.928889-23.921778 15.36 0 29.127111 7.793778 37.944889 13.653333 9.955556 6.627556 19.541333 14.990222 27.591111 22.641778a388.323556 388.323556 0 0 1 26.538667 28.103111l2.417778 2.844445a28.444444 28.444444 0 0 1-3.868445 40.049777 28.728889 28.728889 0 0 1-40.106666-3.953777s-4.551111-5.290667-6.855112-7.879111a331.832889 331.832889 0 0 0-17.379555-17.976889 156.586667 156.586667 0 0 0-19.911111-16.497778c-17.123556-11.377778-43.576889 4.437333-59.022222 12.856889-20.224 11.064889-40.704 26.140444-59.363556 41.813333a652.401778 652.401778 0 0 0-46.222222 43.064889zM461.653333 318.065778a28.444444 28.444444 0 0 0-1.365333-40.192l-0.085333-0.085334-5.859556-5.319111a840.419556 840.419556 0 0 0-68.778667-55.210666c-21.048889-15.104-45.169778-30.663111-69.461333-42.552889-23.722667-11.605333-50.375111-21.105778-75.747555-21.105778-15.303111 0-29.184 6.883556-38.940445 12.913778-10.524444 6.485333-20.48 14.705778-28.728889 22.243555a348.330667 348.330667 0 0 0-28.814222 29.639111l-0.711111 0.853334a28.444444 28.444444 0 0 0 3.555555 40.078222c12.145778 10.154667 30.350222 7.879111 40.391112-3.982222l1.336888-1.507556a291.470222 291.470222 0 0 1 22.528-23.04c6.940444-6.314667 13.994667-11.975111 20.337778-15.900444 5.404444-3.328 8.305778-4.152889 9.016889-4.352 13.937778-3.953778 38.570667 9.301333 50.773333 15.274666 20.394667 9.955556 41.671111 23.608889 61.297778 37.660445a785.066667 785.066667 0 0 1 67.868445 54.869333l1.223111 1.137778a28.444444 28.444444 0 0 0 40.192-1.422222zM771.612444 560.867556a28.444444 28.444444 0 0 1 39.879112 4.408888c1.905778 2.531556 4.380444 4.778667 6.712888 6.826667 4.835556 4.380444 9.870222 7.651556 13.937778 8.96 12.856889 4.096 21.390222 4.124444 25.770667 3.697778a21.475556 21.475556 0 0 0 3.896889-0.682667 28.444444 28.444444 0 0 1 24.234666 51.484445l-1.251555 0.568889a55.864889 55.864889 0 0 1-6.485333 2.389333c-3.783111 1.137778-8.760889 2.275556-14.848 2.844444-4.408889 0.455111-9.329778 0.625778-14.734223 0.341334a402.204444 402.204444 0 0 1-12.686222 22.414222c-9.386667 15.36-23.324444 36.352-42.069333 59.107555-37.205333 45.255111-94.378667 99.015111-172.430222 128.284445-67.214222 25.230222-144.611556 24.832-214.243556 5.404444-69.518222-19.456-134.257778-58.794667-174.449778-115.057777a28.444444 28.444444 0 1 1 46.307556-33.052445c30.919111 43.292444 83.313778 76.487111 143.473778 93.297778 60.046222 16.782222 124.871111 16.412444 178.915555-3.84 65.422222-24.519111 114.915556-70.314667 148.48-111.160889a459.434667 459.434667 0 0 0 43.235556-62.464 117.248 117.248 0 0 1-12.970667-10.097778 131.413333 131.413333 0 0 1-13.141333-13.653333 28.928 28.928 0 0 1 4.465777-40.021333z" fill="#fac732" p-id="41927"></path></svg>