<?xml version="1.0" standalone="no"?><!DOCTYPE svg PUBLIC "-//W3C//DTD SVG 1.1//EN" "http://www.w3.org/Graphics/SVG/1.1/DTD/svg11.dtd"><svg t="1710145461340" class="icon" viewBox="0 0 1117 1024" version="1.1" xmlns="http://www.w3.org/2000/svg" p-id="26218" width="218.1640625" height="200" xmlns:xlink="http://www.w3.org/1999/xlink"><path d="M854.04703 941.02497H260.002909c-64.605091 0-117.170424-45.893818-117.170424-102.306909V360.789333l379.345454-265.309091c28.827152-20.169697 70.190545-19.673212 98.335031 1.241213l350.642424 260.592484V838.749091c0 56.413091-52.503273 102.306909-117.108364 102.306909m243.712-590.165333L668.609939 31.992242C612.538182-9.681455 533.255758-10.767515 475.911758 29.385697L17.221818 350.17697a40.401455 40.401455 0 0 0 23.148606 73.417697c7.540364 0 15.080727-2.296242 21.783273-6.640485V838.749091c0 100.910545 88.746667 182.985697 197.849212 182.985697h594.044121c109.102545 0 197.818182-82.075152 197.818182-182.985697v-422.012121a40.060121 40.060121 0 0 0 54.20994-9.402182 40.308364 40.308364 0 0 0-8.316122-56.444121" fill="#67666e" p-id="26219"></path><path d="M713.386667 606.208c-39.315394 42.511515-103.020606 67.863273-170.356364 67.863273-67.335758 0-131.04097-25.382788-170.356364-67.863273-16.539152-17.842424-48.748606-22.000485-71.804121-9.24703-23.148606 12.722424-28.547879 37.484606-12.008727 55.32703 58.647273 63.301818 153.63103 101.096727 254.169212 101.096727 100.538182 0 195.55297-37.794909 254.169212-101.096727 16.539152-17.842424 11.170909-42.635636-12.008727-55.32703-23.148606-12.722424-55.26497-8.595394-71.773091 9.24703" fill="#67666e" p-id="26220"></path></svg>