<?xml version="1.0" standalone="no"?><!DOCTYPE svg PUBLIC "-//W3C//DTD SVG 1.1//EN" "http://www.w3.org/Graphics/SVG/1.1/DTD/svg11.dtd"><svg t="1710123631607" class="icon" viewBox="0 0 1024 1024" version="1.1" xmlns="http://www.w3.org/2000/svg" p-id="28162" xmlns:xlink="http://www.w3.org/1999/xlink" width="200" height="200"><path d="M864.96 32H159.04A127.04 127.04 0 0 0 32 159.04v705.92c0 70.144 56.896 127.04 127.04 127.04h705.92a127.04 127.04 0 0 0 127.04-127.04V159.04A127.04 127.04 0 0 0 864.96 32z m-705.92 64h705.92c34.816 0 63.04 28.16 63.04 63.04v705.92c0 34.816-28.16 63.04-63.04 63.04H159.04a63.04 63.04 0 0 1-63.04-63.04V159.04c0-34.816 28.16-63.04 63.04-63.04z" fill="#ee7ba3" p-id="28163"></path><path d="M248.704 482.56a1188.48 1188.48 0 0 0 107.52-66.304v48h315.392v-45.44c32.256 22.72 66.368 44.16 103.04 63.168l36.032-64.512a879.104 879.104 0 0 1-273.728-204.16h-48c-73.344 82.176-164.992 150.464-275.648 204.8l35.392 64.512z m401.408-80.256H375.168a794.88 794.88 0 0 0 137.792-129.536c39.808 48 85.312 91.008 137.152 129.536z m53.76 396.992l54.976-38.592c-31.616-45.44-75.84-99.84-133.376-161.792l-51.2 32.256c20.864 24 40.448 47.36 58.752 70.144a4372.544 4372.544 0 0 1-249.6 21.504 584.512 584.512 0 0 0 92.864-129.6h293.952V528.768h-513.28v64.448h142.848c-22.144 40.448-48.64 79.68-80.256 116.928-6.976 7.616-18.368 13.952-34.176 17.728l17.728 57.536c146.624-8.896 268.608-20.864 366.592-36.032 12.032 16.384 23.424 33.472 34.176 49.92z" fill="#ee7ba3" p-id="28164"></path></svg>