<?xml version="1.0" standalone="no"?><!DOCTYPE svg PUBLIC "-//W3C//DTD SVG 1.1//EN" "http://www.w3.org/Graphics/SVG/1.1/DTD/svg11.dtd"><svg t="1710066765795" class="icon" viewBox="0 0 1024 1024" version="1.1" xmlns="http://www.w3.org/2000/svg" p-id="9458" xmlns:xlink="http://www.w3.org/1999/xlink" width="200" height="200"><path d="M512.877714 841.142857l-228.205714 119.954286a73.142857 73.142857 0 0 1-106.057143-77.165714l43.52-254.025143-184.539428-179.931429a73.142857 73.142857 0 0 1 40.521142-124.708571l255.049143-37.083429L447.268571 57.051429a73.142857 73.142857 0 0 1 131.145143 0l114.102857 231.131428 255.049143 37.083429a73.142857 73.142857 0 0 1 40.521143 124.781714l-184.539428 179.931429 43.52 253.952a73.142857 73.142857 0 0 1-106.057143 77.165714L512.731429 841.142857z m212.114286-236.763428l212.041143-206.701715-293.083429-42.642285-131.072-265.508572-131.145143 265.508572-293.083428 42.642285 212.114286 206.701715-50.102858 291.913142 262.217143-137.801142 262.144 137.801142-50.102857-291.84z" fill="#666666" p-id="9459"></path></svg>